<svg height="512" viewBox="0 0 512 512" width="512" xmlns="http://www.w3.org/2000/svg"><g fill="none" stroke="#fff" stroke-linecap="round" stroke-linejoin="round" stroke-miterlimit="10" stroke-width="10"><circle cx="256" cy="256" r="57"/><path d="M364.8 233.5h-24.3c-4.3-10.3-4.6-11.1-8.8-21.4l17.2-17.2-31.9-31.8-17.2 17.2c-10.3-4.3-11.1-4.6-21.4-8.8v-24.3h-45v24.3c-10.3 4.3-11.1 4.6-21.4 8.8l-17-17.2-31.9 31.9 17.2 17.2c-4.3 10.3-4.6 11.1-8.8 21.4h-24.3v45h24.3c4.3 10.3 4.6 11.1 8.8 21.4l-17.2 17 31.8 31.8 17.2-17.2c10.3 4.3 11.1 4.6 21.4 8.8v24.3h45v-24.3c10.3-4.3 11.1-4.6 21.4-8.8l17.2 17.2 31.8-31.8-17.2-17.2c4.3-10.3 4.6-11.1 8.8-21.4h24.3v-44.9z"/></g></svg>