<svg xmlns="http://www.w3.org/2000/svg" width="463" height="363" viewBox="0 0 283.405 222.018" shape-rendering="geometricPrecision" text-rendering="geometricPrecision" image-rendering="optimizeQuality" fill-rule="evenodd" clip-rule="evenodd"><defs><style>.str3,.str4{stroke:#5a666f;stroke-linecap:round;stroke-linejoin:round}.str4{stroke-width:.110296}.str3{stroke-width:.260398}.str1,.str10{stroke:#c5c6c6}.str10{stroke-width:.289492}.str1{stroke-width:.361864}.str2,.str5,.str7{stroke-linecap:round;stroke-linejoin:round}.str5,.str7{stroke-width:.362009}.str7{stroke:#c5c6c6}.str2,.str5{stroke:#5a666f}.str2{stroke-width:.50661}.str11{stroke:#c5c6c6}.str11,.str6{stroke-width:.578983}.str12,.str6,.str8{stroke:#5a666f;stroke-linecap:round;stroke-linejoin:round}.str12{stroke-width:.579128}.str8{stroke-width:.723584}.str0{stroke:#c5c6c6;stroke-width:.723729}.str9{stroke:#5a666f;stroke-width:.260398;stroke-linecap:round;stroke-linejoin:round;stroke-dasharray:2.450835 2.450835}.fil1{fill:none}.fil0{fill:#c5c6c6}.fil2{fill:#5a666f}</style></defs><g id="Слой_x0020_1"><g id="_495095504"><path id="_500127328" class="fil0" d="M152.087 68.739h-.654s.002-.403 0 .04c-.081 17.154 15.439 24.556 24.677 24.597h-.04v-.666c-9.186-.387-23.706-7.664-23.983-23.971z"/><path id="_500127352" class="fil0" d="M176.07 68.739h-.648v24.637h.648z"/><path id="_500127136" class="fil0" d="M86.026 60.873v.654s.402-.002-.04 0c-17.155.08-24.557-15.439-24.597-24.678-.002-.391 0 .04 0 .04h.666c.387 9.187 7.664 23.706 23.971 23.984z"/><path id="_500127160" class="fil0" d="M86.026 36.89v.648H61.389v-.648z"/><path id="_500126944" class="fil0" d="M178.087 26.896l.715-.002v-.045c.02-18.793-16.985-26.84-27.09-26.848h.044l.002.73c10.05.387 25.96 8.301 26.329 26.165z"/><path id="_500126968" class="fil0" d="M151.566 27.218l.643-.002L152.11 0l-.644.002z"/><path id="_500126752" class="fil0" d="M216.972 112.879h.582s-.002-.359 0 .036c.072 15.285-13.745 21.88-21.97 21.916h.036v-.593c8.178-.345 21.105-6.83 21.352-21.359z"/><path id="_500126776" class="fil0" d="M195.503 112.782h.664v22.049h-.664z"/><path id="_500126560" class="fil0" d="M222.748 51.471v-.493s.312.002-.031 0c-13.306-.06-19.048 11.642-19.08 18.608v-.03h.517c.3-6.927 5.945-17.876 18.594-18.085z"/><path id="_500126584" class="fil0" d="M222.825 69.644v-.664h-19.184v.664z"/><path id="_500126368" class="fil0" d="M222.748 87.643v-.493s.312.002-.031 0c-13.306-.06-19.048 11.642-19.08 18.608v-.03h.517c.3-6.927 5.945-17.876 18.594-18.085z"/><path id="_500126392" class="fil0" d="M222.825 105.816v-.664h-19.184v.664z"/><path id="_500126152" class="fil1 str0" d="M276.371 164.837h-17.297v15.128h17.297z"/><path id="_500126104" class="fil1 str0" d="M276.371 164.837h-1.787v15.128h1.787z"/><circle id="_500126056" class="fil1 str0" cx="263.336" cy="168.905" r="2.171"/><circle id="_500126008" class="fil1 str0" cx="263.336" cy="175.752" r="2.171"/><circle id="_500125912" class="fil1 str0" cx="270.325" cy="175.752" r="2.171"/><circle id="_500125936" class="fil1 str0" cx="270.325" cy="168.905" r="1.809"/><path id="_500125648" class="fil1 str0" d="M263.367 125.067h12.957v17.369h-12.957z"/><path id="_500125672" class="fil1 str0" d="M272.271 125.067c.204 0 .406.007.606.02v17.33c-.2.012-.402.02-.606.02-4.918 0-8.904-3.889-8.904-8.685 0-4.797 3.986-8.685 8.904-8.685z"/><path id="_500125432" class="fil1 str0" d="M276.489 75.883h-21.652V29.668h21.652z"/><path id="_500125336" class="fil1 str0" d="M271.677 32.533h-12.028a3.25 3.25 0 0 0-3.242 3.242v26.714a9.255 9.255 0 0 0 18.512 0V35.775a3.25 3.25 0 0 0-3.242-3.242z"/><circle id="_500125360" class="fil1 str0" cx="265.663" cy="37.329" r=".926"/><path id="_500125096" class="fil1 str0" d="M237.616 62.015c5.072 0 9.183 3.304 9.183 7.38 0 1.674-.693 3.218-1.862 4.456h-14.642c-1.168-1.238-1.862-2.782-1.862-4.456 0-4.076 4.111-7.38 9.183-7.38z"/><path id="_500124976" class="fil1 str0" d="M237.615 63.462c4.283 0 7.755 2.624 7.755 5.86 0 1.825-1.102 3.454-2.831 4.529h-9.847c-1.73-1.075-2.832-2.704-2.832-4.528 0-3.237 3.472-5.86 7.755-5.86z"/><path id="_500124880" class="fil1 str0" d="M230.056 73.586h15.281l-2.16 4.313h-10.961z"/><path id="_500124784" class="fil1 str0" d="M234.992 75.129h5.408l.926 2.77h-7.259z"/><circle id="_500124808" class="fil1 str0" cx="237.696" cy="70.977" r="1.003"/><path id="_500124616" class="fil1 str0" d="M272.479 92.972v5.407l4.183.926v-7.26z"/><ellipse id="_500124496" class="fil1 str1" transform="matrix(0 .8193 .79238 0 274.332 95.675)" rx=".941" ry=".973"/><path id="_500124376" class="fil1 str0" d="M276.662 91.334v10.226h-3.866a1.547 1.547 0 0 1-1.542-1.543v-8.683c0-.849.694-1.543 1.542-1.543h3.866v1.543z"/><path id="_500124256" class="fil1 str0" d="M255.336 95.663c0 3.23 2.81 5.85 6.275 5.85.639 0 1.255-.09 1.835-.254 1.117-.133 2.233-.227 3.35-.404l4.183-.817v-8.683c-1.628-.24-2.638-.636-4.266-.877l-3.054-.347a6.684 6.684 0 0 0-2.048-.319c-3.465 0-6.275 2.62-6.275 5.85z"/><path id="_500124280" class="fil1 str0" d="M256.816 95.662a4.605 4.605 0 0 0 4.592 4.592h1.36a4.605 4.605 0 0 0 4.592-4.591 4.605 4.605 0 0 0-4.592-4.592h-1.36a4.605 4.605 0 0 0-4.592 4.591z"/><path id="_500124160" class="fil1 str2" d="M201.883 21.999v6.794"/><path id="_500124112" class="fil1 str3" d="M1.4 24.23h1.777"/><path id="_500124064" class="fil1 str3" d="M8.509 24.23h1.777"/><path id="_500124016" class="fil1 str3" d="M15.618 24.23h1.776"/><path id="_500123968" class="fil1 str3" d="M22.726 24.23h1.777"/><path id="_500123920" class="fil1 str3" d="M29.835 24.23h1.776"/><path id="_500123872" class="fil1 str3" d="M36.944 24.23h1.777"/><path id="_500123824" class="fil1 str3" d="M44.053 24.23h1.776"/><path id="_500123776" class="fil1 str3" d="M51.161 24.23h1.777"/><path id="_500123728" class="fil1 str3" d="M58.27 24.23h1.777"/><path id="_500123680" class="fil1 str3" d="M65.379 24.23h1.776"/><path id="_500123632" class="fil1 str3" d="M72.487 24.23h1.777"/><path id="_500123584" class="fil1 str3" d="M79.596 24.23h1.776"/><path id="_500123536" class="fil1 str3" d="M86.705 24.23h.431"/><path id="_500123488" class="fil1 str3" d="M4.955 27.784h1.776"/><path id="_500123440" class="fil1 str3" d="M12.063 27.784h1.777"/><path id="_500123392" class="fil1 str3" d="M19.172 27.784h1.776"/><path id="_500123344" class="fil1 str3" d="M26.281 27.784h1.776"/><path id="_500123296" class="fil1 str3" d="M33.389 27.784h1.777"/><path id="_500123248" class="fil1 str3" d="M40.498 27.784h1.777"/><path id="_500123200" class="fil1 str3" d="M47.607 27.784h1.776"/><path id="_500123152" class="fil1 str3" d="M54.716 27.784h1.776"/><path id="_500123104" class="fil1 str3" d="M61.824 27.784h1.777"/><path id="_500123056" class="fil1 str3" d="M68.933 27.784h1.777"/><path id="_500123008" class="fil1 str3" d="M76.042 27.784h1.777"/><path id="_500122960" class="fil1 str3" d="M83.15 27.784h1.777"/><path id="_500122912" class="fil1 str3" d="M1.4 31.339h1.777"/><path id="_500122864" class="fil1 str3" d="M4.955 34.893h1.02"/><path id="_500122816" class="fil1 str3" d="M1.4 38.448h1.777"/><path id="_500122768" class="fil1 str3" d="M4.955 42.002h1.02"/><path id="_500122720" class="fil1 str3" d="M1.4 45.556h1.777"/><path id="_500122672" class="fil1 str3" d="M4.955 49.11h1.02"/><path id="_500122624" class="fil1 str3" d="M1.4 52.665h1.777"/><path id="_500122576" class="fil1 str3" d="M4.955 56.219h1.02"/><path id="_500122528" class="fil1 str3" d="M1.4 59.774h1.777"/><path id="_500122480" class="fil1 str3" d="M4.955 63.328h1.02"/><path id="_500122432" class="fil1 str3" d="M1.4 66.882h1.777"/><path id="_500122384" class="fil1 str3" d="M4.955 70.437h1.02"/><path id="_500122336" class="fil1 str3" d="M1.4 73.991h1.777"/><path id="_500122288" class="fil1 str3" d="M4.955 77.545h1.02"/><path id="_500122240" class="fil1 str3" d="M1.4 81.1h1.777"/><path id="_500122192" class="fil1 str3" d="M4.955 84.654h1.02"/><path id="_500122144" class="fil1 str3" d="M1.4 88.209h1.777"/><path id="_500122096" class="fil1 str3" d="M4.955 91.763h1.02"/><path id="_500122048" class="fil1 str3" d="M1.4 95.317h1.777"/><path id="_500122000" class="fil1 str3" d="M4.955 98.872h1.02"/><path id="_500121952" class="fil1 str3" d="M1.4 102.426h1.777"/><path id="_500121904" class="fil1 str3" d="M4.955 105.98h1.02"/><path id="_500121880" class="fil1 str3" d="M1.4 109.535h1.777"/><path id="_487304920" class="fil1 str3" d="M4.955 113.089h1.02"/><path id="_487304872" class="fil1 str3" d="M1.4 116.644h1.777"/><path id="_487304824" class="fil1 str3" d="M4.955 120.198h1.02"/><path id="_487304776" class="fil1 str3" d="M1.4 123.752h1.777"/><path id="_487304728" class="fil1 str3" d="M4.955 127.307h1.02"/><path id="_487304680" class="fil1 str3" d="M1.4 130.861h1.777"/><path id="_487304632" class="fil1 str3" d="M4.955 134.415h1.02"/><path id="_487304584" class="fil1 str3" d="M1.4 137.97h1.777"/><path id="_487304536" class="fil1 str3" d="M4.955 141.524h1.02"/><path id="_487304488" class="fil1 str3" d="M1.4 145.079h1.777"/><path id="_487304440" class="fil1 str3" d="M4.955 148.633h1.02"/><path id="_487304392" class="fil1 str3" d="M1.4 152.187h1.777"/><path id="_487304344" class="fil1 str3" d="M4.955 155.742h1.02"/><path id="_487304296" class="fil1 str3" d="M1.4 159.296h1.777"/><path id="_487304248" class="fil1 str3" d="M4.955 162.85h1.02"/><path id="_487304200" class="fil1 str3" d="M1.4 166.405h1.777"/><path id="_487304152" class="fil1 str3" d="M2.289 167.293v-1.777"/><path id="_487304104" class="fil1 str3" d="M2.289 160.184v-1.776"/><path id="_487304056" class="fil1 str3" d="M2.289 153.076v-1.777"/><path id="_487304008" class="fil1 str3" d="M2.289 145.967v-1.777"/><path id="_487303960" class="fil1 str3" d="M2.289 138.858v-1.776"/><path id="_487303912" class="fil1 str3" d="M2.289 131.749v-1.776"/><path id="_487303864" class="fil1 str3" d="M2.289 124.641v-1.777"/><path id="_487303816" class="fil1 str3" d="M2.289 117.532v-1.777"/><path id="_487303768" class="fil1 str3" d="M2.289 110.423v-1.776"/><path id="_487303720" class="fil1 str3" d="M2.289 103.314v-1.776"/><path id="_487303672" class="fil1 str3" d="M2.289 96.206v-1.777"/><path id="_487303624" class="fil1 str3" d="M2.289 89.097V87.32"/><path id="_487303576" class="fil1 str3" d="M2.289 81.988v-1.776"/><path id="_487303528" class="fil1 str3" d="M2.289 74.88v-1.777"/><path id="_487303480" class="fil1 str3" d="M5.843 163.739v-1.777"/><path id="_487303432" class="fil1 str3" d="M5.843 156.63v-1.777"/><path id="_487303384" class="fil1 str3" d="M5.843 149.521v-1.776"/><path id="_487303336" class="fil1 str3" d="M5.843 142.413v-1.777"/><path id="_487303288" class="fil1 str3" d="M5.843 135.304v-1.777"/><path id="_487303240" class="fil1 str3" d="M5.843 128.195v-1.777"/><path id="_487303192" class="fil1 str3" d="M5.843 121.086v-1.776"/><path id="_487303144" class="fil1 str3" d="M5.843 113.978v-1.777"/><path id="_487303096" class="fil1 str3" d="M5.843 106.869v-1.777"/><path id="_487303048" class="fil1 str3" d="M5.843 99.76v-1.776"/><path id="_487303000" class="fil1 str3" d="M5.843 92.651v-1.776"/><path id="_487302952" class="fil1 str3" d="M5.843 85.543v-1.777"/><path id="_487302904" class="fil1 str3" d="M5.843 78.434v-1.777"/><path id="_487302856" class="fil1 str3" d="M5.843 71.325v-1.776"/><path id="_487302808" class="fil1 str3" d="M5.843 64.216V62.44"/><path id="_487302760" class="fil1 str3" d="M5.843 57.108v-1.777"/><path id="_487302712" class="fil1 str3" d="M5.843 49.999v-1.777"/><path id="_487302664" class="fil1 str3" d="M5.843 42.89v-1.776"/><path id="_487302616" class="fil1 str3" d="M5.843 35.782v-1.777"/><path id="_487302568" class="fil1 str3" d="M5.843 28.673v-1.777"/><path id="_487302520" class="fil1 str3" d="M9.397 25.118v-1.776"/><path id="_487302472" class="fil1 str3" d="M12.952 28.673v-1.777"/><path id="_487302424" class="fil1 str3" d="M16.506 25.118v-1.776"/><path id="_487302376" class="fil1 str3" d="M20.061 28.673v-1.777"/><path id="_487302328" class="fil1 str3" d="M23.615 25.118v-1.776"/><path id="_487302280" class="fil1 str3" d="M27.169 28.673v-1.777"/><path id="_487302232" class="fil1 str3" d="M30.724 25.118v-1.776"/><path id="_487302184" class="fil1 str3" d="M34.278 28.673v-1.777"/><path id="_487302136" class="fil1 str3" d="M37.832 25.118v-1.776"/><path id="_487302088" class="fil1 str3" d="M41.387 28.673v-1.777"/><path id="_487302040" class="fil1 str3" d="M44.941 25.118v-1.776"/><path id="_487301992" class="fil1 str3" d="M48.495 28.673v-1.777"/><path id="_487301944" class="fil1 str3" d="M52.05 25.118v-1.776"/><path id="_487301896" class="fil1 str3" d="M55.604 28.673v-1.777"/><path id="_487301848" class="fil1 str3" d="M59.159 25.118v-1.776"/><path id="_487301800" class="fil1 str3" d="M62.713 28.673v-1.777"/><path id="_487301752" class="fil1 str3" d="M66.267 25.118v-1.776"/><path id="_487301704" class="fil1 str3" d="M69.822 28.673v-1.777"/><path id="_487301656" class="fil1 str3" d="M73.376 25.118v-1.776"/><path id="_487301608" class="fil1 str3" d="M76.93 28.673v-1.777"/><path id="_487301560" class="fil1 str3" d="M80.485 25.118v-1.776"/><path id="_487301512" class="fil1 str3" d="M84.039 28.673v-1.777"/><path id="_487301464" class="fil1 str2" d="M5.974 28.792l81.161.019m-81.16-.096l-.002 139.313M.379 23.217l-.003 144.81m282.67-139.235v172.82m-5.597-172.82v172.82"/><path id="_487301416" class="fil1 str4" d="M118.411 216.083v2.033"/><path id="_487301368" class="fil1 str5" d="M116.525 213.373h50.378"/><path id="_487301320" class="fil1 str5" d="M166.901 218.954h-50.377"/><path id="_487301272" class="fil1 str4" d="M166.902 213.374h-1.887"/><path id="_487301224" class="fil1 str4" d="M165.016 216.083v2.042"/><path id="_487301176" class="fil1 str4" d="M165.016 218.134h1.887"/><path id="_487301128" class="fil1 str5" d="M165.016 213.374h-48.491"/><path id="_487301080" class="fil1 str5" d="M116.525 218.374v.58"/><path id="_487301032" class="fil1 str5" d="M166.901 218.394v.56"/><path id="_487300984" class="fil1 str5" d="M116.525 218.114l50.378.04"/><path id="_487300936" class="fil1 str5" d="M116.525 216.083l50.378.053"/><path id="_487300888" class="fil2 str2" d="M87.136 23.152h16.792V33.69H87.136z"/><path id="_487300840" class="fil2 str2" d="M271.851 201.613h11.193v16.793h-11.193z"/><path id="_487300792" class="fil2 str2" d="M85.737 168.028h11.195v50.378H85.737z"/><path id="_487300744" class="fil1 str4" d="M40.66 174.134v1.959"/><path id="_487300696" class="fil1 str5" d="M38.43 171.388h41.981"/><path id="_487300648" class="fil1 str5" d="M80.411 176.985h-41.98"/><path id="_487300600" class="fil1 str4" d="M78.526 174.134v1.981"/><path id="_487300552" class="fil1 str5" d="M80.411 174.134H38.382"/><path id="_487300504" class="fil1 str5" d="M38.431 176.107l41.982.018"/><path id="_487300456" class="fil1 str4" d="M215.312 216.094v1.959"/><path id="_487300408" class="fil1 str5" d="M213.081 213.348h41.982"/><path id="_487300360" class="fil1 str5" d="M255.063 218.946h-41.981"/><path id="_487300312" class="fil1 str4" d="M253.177 216.094v1.981"/><path id="_487300264" class="fil1 str5" d="M255.063 216.094h-42.03"/><path id="_487300216" class="fil1 str5" d="M213.082 218.068l41.982.017"/><path id="_487300168" class="fil1 str2" d="M194.886 28.792h6.997"/><path id="_487300120" class="fil1 str6" d="M189.009 70.232V210.01m2.24-96.139v96.139"/><path id="_487300072" class="fil1 str6" d="M191.248 111.633h3.924v2.239h-3.924"/><path id="_487300024" class="fil1 str2" d="M221.354 111.633h-3.511v2.239h3.491"/><path id="_487299976" class="fil1 str6" d="M87.161 67.993h63.983v2.24H87.161"/><path id="_487299928" class="fil1 str6" d="M191.248 67.933h-14.636v2.298h12.397"/><path id="_487299880" class="fil1 str6" d="M84.922 168.028V61.976h2.242l-.003 6.018"/><path id="_487299832" class="fil1 str6" d="M87.161 70.232l-.025 95.557"/><path id="_487299784" class="fil1 str2" d="M84.922 28.81v7.696h2.213v-7.773"/><path id="_487299736" class="fil1 str2" d="M235.328 113.873h41.422m-55.416-.001l55.416.001"/><path id="_487299688" class="fil1 str6" d="M87.136 165.79h9.794v2.238l-12.008.003V61.975"/><path id="_487299640" class="fil1 str2" d="M224.739 81.959h52.709m-56.094 31.913h56.094"/><path id="_487299592" class="fil1 str6" d="M191.248 67.933v43.7"/><path id="_487299544" class="fil1 str2" d="M221.354 113.872h56.094"/><path id="_487299496" class="fil1 str7" d="M225.411 29.526h16.792V46.32h-16.792z"/><path id="_487299448" class="fil1 str8" d="M96.931 210.01v11.195"/><path id="_487299400" class="fil1 str6" d="M85.737 168.03H80.41"/><path id="_487299352" class="fil1 str8" d="M80.41 168.028v11.196"/><path id="_487299304" class="fil1 str9" d="M255.06 210.01h16.791"/><path id="_487299256" class="fil1 str3" d="M271.851 210.01v11.195"/><path id="_487299208" class="fil1 str9" d="M271.851 221.204H255.06"/><path id="_487299160" class="fil1 str3" d="M255.06 221.204v-11.195"/><path id="_487299112" class="fil1 str9" d="M166.899 210.01h46.181"/><path id="_487299064" class="fil1 str3" d="M166.899 210.01h3.343m39.493 0h3.344"/><path id="_487299016" class="fil1 str3" d="M213.079 210.01v11.195"/><path id="_487298968" class="fil1 str9" d="M213.079 221.204h-46.18"/><path id="_487298920" class="fil1 str3" d="M213.079 221.204h-3.343m-39.493 0H166.9"/><path id="_487298872" class="fil1 str3" d="M166.899 221.204v-11.195"/><path id="_487298824" class="fil1 str9" d="M96.931 210.01h19.592"/><path id="_487298776" class="fil1 str3" d="M116.523 210.01v11.194"/><path id="_487298728" class="fil1 str9" d="M116.523 221.204H96.931"/><path id="_487298680" class="fil1 str3" d="M96.931 221.204V210.01"/><path id="_487298632" class="fil1 str6" d="M80.411 168.03h5.326"/><path id="_487298584" class="fil1 str3" d="M85.737 168.03v11.194"/><path id="_487298536" class="fil1 str3" d="M85.737 179.224h-5.325"/><path id="_487298488" class="fil1 str3" d="M80.411 179.224v-11.195"/><path id="_487298440" class="fil1 str3" d="M38.43 168.094v11.129"/><path id="_487298392" class="fil1 str8" d="M271.852 210.01H255.06"/><path id="_487298344" class="fil1 str8" d="M213.078 210.01h-46.179"/><path id="_487298296" class="fil1 str8" d="M116.523 210.01H96.932"/><path id="_487298248" class="fil1 str8" d="M271.851 221.204h-16.792"/><path id="_487298200" class="fil1 str8" d="M213.079 221.204H166.9"/><path id="_487298152" class="fil1 str8" d="M116.523 221.204H96.931"/><path id="_487298104" class="fil1 str8" d="M85.737 179.224H80.41"/><path id="_487298056" class="fil1 str8" d="M255.059 210.01v11.195"/><path id="_487298008" class="fil1 str8" d="M213.077 210.01l.003 11.195"/><path id="_487297960" class="fil1 str8" d="M38.43 168.094l.001 11.129"/><path id="_487297912" class="fil1 str8" d="M166.899 210.01v11.195"/><path id="_487297864" class="fil1 str8" d="M116.522 210.01v11.195"/><path id="_487297816" class="fil1 str8" d="M271.851 210.019v11.185"/><path id="_487297768" class="fil1 str4" d="M271.882 219.73l1.325-1.325m-.914 2.8l2.798-2.8m-.913 2.8l2.8-2.8m-.915 2.8l2.799-2.8m-.914 2.8l2.8-2.8m-.915 2.8l2.799-2.8m-10.095 2.8l-.655-.656m2.54.656l-2.54-2.54m4.424 2.54l-2.798-2.8m4.684 2.8l-2.8-2.8m4.684 2.8l-2.798-2.8m4.684 2.8l-2.8-2.8m3.907 2.022l-2.021-2.022"/><path id="_487297720" class="fil1 str2" d="M271.882 218.405h11.27l-.031 2.799-11.239.001z"/><path id="_487297672" class="fil1 str4" d="M81.84 179.804l.58-.58m-.58 2.466l2.465-2.465m-2.465 4.349l3.921-3.921m-3.92 5.807l3.92-3.923m-3.92 5.807l3.92-3.92m-3.922 5.806l3.922-3.922m-3.922 5.806l3.92-3.92M81.84 193l3.92-3.92m-3.92 5.804l3.92-3.92m-3.92 5.806l3.92-3.92m-3.92 5.806l3.92-3.921m-3.92 5.805l3.92-3.92m-3.92 5.807l3.92-3.922m-3.922 5.806l3.921-3.92m-3.92 5.806l3.92-3.922m-3.92 5.806l3.919-3.92m-3.92 5.805l3.92-3.919m-3.92 5.805l3.92-3.92m-3.92 5.805l3.92-3.92m-3.92 5.806l3.92-3.92m-3.92 5.804l3.918-3.92m-3.92 5.806l3.92-3.92m-3.846 5.732l3.846-3.846m-1.961 3.846l1.96-1.96m-.075 1.96l.075-.076m.001-1.886l.838-.838m-.839 2.724l2.724-2.724m-.914 2.8l2.8-2.8m-.914 2.8l2.798-2.8m-.914 2.8l2.798-2.8m-.912 2.8l2.798-2.8m-.914 2.8l1.828-1.83m-14.778 1.83l-.318-.316m2.202.316l-2.202-2.202m4.086 2.202l-.168-.168m2.054.168l-2.053-2.052m0 1.884l-3.918-3.918m3.917 2.032l-3.917-3.916m7.855 5.97l-2.798-2.8m4.684 2.8l-2.8-2.8m4.684 2.8l-2.798-2.8m4.683 2.8l-2.799-2.8m-6.793-1.137l-3.918-3.918m3.918 2.033l-3.918-3.919m3.918 2.034l-3.918-3.918m3.92 2.034l-3.92-3.919m15.095 13.21l-2.5-2.5m2.5.616l-.613-.616m-10.562-8.676l-3.92-3.92m3.92 2.035l-3.92-3.918m3.92 2.033l-3.918-3.918m3.918 2.034l-3.918-3.92m3.92 2.036l-3.92-3.92m3.92 2.035l-3.92-3.92m3.92 2.035l-3.92-3.92m3.92 2.035l-3.92-3.92m3.921 2.036l-3.921-3.92m3.921 2.035l-3.921-3.92m3.921 2.036l-3.92-3.921m3.92 2.035l-3.92-3.92m3.92 2.036l-3.92-3.921m3.921 2.037l-3.92-3.922m3.92 2.037l-3.92-3.92m3.92 2.036l-2.235-2.235m2.235.349l-.349-.35"/><path id="_487297624" class="fil1 str2" d="M85.754 218.405h11.178v2.799l-11.178.001z"/><path id="_487297576" class="fil1 str2" d="M85.754 221.205h-3.918l.005-41.981h3.92z"/><path id="_487297528" class="fil1 str2" d="M81.277 221.764l.001-42.001"/><path id="_487297480" class="fil1 str2" d="M221.335 106.696h3.403v7.178l-3.403-.001z"/><path id="_487297432" class="fil1 str2" d="M221.335 70.57h3.403v16.233h-3.403z"/><path id="_487297384" class="fil1 str2" d="M224.692 78.6h52.756v3.36H224.74z"/><path id="_487297336" class="fil1 str2" d="M221.381 28.793h3.359v21.906h-3.359z"/><path id="_487297288" class="fil1 str2" d="M224.739 110.514h52.709"/><path id="_487297240" class="fil1 str2" d="M103.928 23.137h47.215v5.496m0 .1h-47.215"/><path id="_487297192" class="fil1 str3" d="M186.227 24.23h1.777"/><path id="_487297144" class="fil1 str3" d="M193.336 24.23h1.776"/><path id="_487297096" class="fil1 str3" d="M200.445 24.23h1.424"/><path id="_487297048" class="fil1 str3" d="M189.782 27.784h1.776"/><path id="_487297000" class="fil1 str3" d="M196.89 27.784h1.777"/><path id="_487296952" class="fil1 str3" d="M187.116 25.118v-1.73"/><path id="_487296904" class="fil1 str3" d="M190.67 28.673v-1.777"/><path id="_487296856" class="fil1 str3" d="M194.225 25.118v-1.73"/><path id="_487296808" class="fil1 str3" d="M197.779 28.673v-1.777"/><path id="_487296760" class="fil1 str3" d="M201.333 25.118v-1.73"/><path id="_487296712" class="fil1 str2" d="M179.492 23.388h22.378v5.405h-22.378z"/><path id="_487296664" class="fil1 str3" d="M278.708 76.06h1.777"/><path id="_487296616" class="fil1 str3" d="M278.708 83.169h1.777"/><path id="_487296568" class="fil1 str3" d="M278.708 90.277h1.777"/><path id="_487296520" class="fil1 str3" d="M278.708 97.386h1.777"/><path id="_487296472" class="fil1 str3" d="M278.708 104.495h1.777"/><path id="_487296424" class="fil1 str3" d="M278.708 111.604h1.777"/><path id="_487296376" class="fil1 str3" d="M278.708 118.712h1.777"/><path id="_487296328" class="fil1 str3" d="M278.708 125.821h1.777"/><path id="_487296280" class="fil1 str3" d="M278.708 132.93h1.777"/><path id="_487296232" class="fil1 str3" d="M278.708 140.039h1.777"/><path id="_487296184" class="fil1 str3" d="M278.708 147.147h1.777"/><path id="_487296136" class="fil1 str3" d="M278.708 154.256h1.777"/><path id="_487296088" class="fil1 str3" d="M278.708 161.365h1.777"/><path id="_487296040" class="fil1 str3" d="M278.708 168.474h1.777"/><path id="_487295992" class="fil1 str3" d="M278.708 175.582h1.777"/><path id="_487295944" class="fil1 str3" d="M278.708 182.691h1.777"/><path id="_487295896" class="fil1 str3" d="M278.708 189.8h1.777"/><path id="_487295848" class="fil1 str3" d="M278.708 196.909h1.777"/><path id="_487295800" class="fil1 str3" d="M279.597 197.797v-1.777"/><path id="_487295752" class="fil1 str3" d="M279.597 190.688v-1.776"/><path id="_487295704" class="fil1 str3" d="M279.597 183.58v-1.777"/><path id="_487295656" class="fil1 str3" d="M279.597 176.471v-1.777"/><path id="_487295608" class="fil1 str3" d="M279.597 169.362v-1.777"/><path id="_487295560" class="fil1 str3" d="M279.597 162.253v-1.776"/><path id="_487295512" class="fil1 str3" d="M279.597 155.145v-1.777"/><path id="_487295464" class="fil1 str3" d="M279.597 148.036v-1.777"/><path id="_487295416" class="fil1 str3" d="M279.597 140.927v-1.776"/><path id="_487295368" class="fil1 str3" d="M279.597 133.818v-1.776"/><path id="_487295320" class="fil1 str3" d="M279.597 126.71v-1.777"/><path id="_487295272" class="fil1 str3" d="M279.597 119.601v-1.777"/><path id="_487295224" class="fil1 str3" d="M279.597 112.492v-1.776"/><path id="_487295176" class="fil1 str3" d="M279.597 84.057v-1.776"/><path id="_487295128" class="fil1 str3" d="M279.597 76.949v-1.777"/><path id="_487295080" class="fil2 str2" d="M277.448 28.792h5.597v172.821h-5.597z"/><path id="_487295032" class="fil1 str3" d="M280.108 82.097h1.777"/><path id="_487294984" class="fil1 str3" d="M280.108 89.206h1.777"/><path id="_487294936" class="fil1 str3" d="M280.108 96.314h1.777"/><path id="_487294888" class="fil1 str3" d="M280.108 103.423h1.777"/><path id="_487294840" class="fil1 str3" d="M277.448 106.978h.883"/><path id="_487294792" class="fil1 str3" d="M280.108 110.532h1.777"/><path id="_487294744" class="fil1 str3" d="M277.448 114.086h.883"/><path id="_487294696" class="fil1 str3" d="M280.108 117.641h1.777"/><path id="_487294648" class="fil1 str3" d="M277.448 121.195h.883"/><path id="_487294600" class="fil1 str3" d="M280.108 131.858h1.777"/><path id="_487294552" class="fil1 str3" d="M280.108 138.967h1.777"/><path id="_487294504" class="fil1 str3" d="M280.108 146.076h1.777"/><path id="_487294456" class="fil1 str3" d="M280.108 153.184h1.777"/><path id="_487294408" class="fil1 str3" d="M280.108 160.293h1.777"/><path id="_487294360" class="fil1 str3" d="M280.108 167.402h1.777"/><path id="_487294312" class="fil1 str3" d="M280.108 174.511h1.777"/><path id="_487294264" class="fil1 str3" d="M280.108 181.619h1.777"/><path id="_487294216" class="fil1 str3" d="M280.108 188.728h1.777"/><path id="_487294168" class="fil1 str3" d="M277.448 192.283h.883"/><path id="_487294120" class="fil1 str3" d="M280.108 195.837h1.777"/><path id="_487294072" class="fil1 str3" d="M277.448 199.391h.883"/><path id="_487294024" class="fil1 str3" d="M280.997 196.725v-1.776"/><path id="_487293976" class="fil1 str3" d="M280.997 189.617v-1.777"/><path id="_487293928" class="fil1 str3" d="M280.997 182.508v-1.777"/><path id="_487293880" class="fil1 str3" d="M280.997 175.399v-1.777"/><path id="_487293832" class="fil1 str3" d="M280.997 168.29v-1.776"/><path id="_487293784" class="fil1 str3" d="M280.997 161.182v-1.777"/><path id="_487293736" class="fil1 str3" d="M280.997 154.073v-1.777"/><path id="_487293688" class="fil1 str3" d="M280.997 146.964v-1.777"/><path id="_487293640" class="fil1 str3" d="M280.997 139.855v-1.776"/><path id="_487293592" class="fil1 str3" d="M280.997 132.747v-1.777"/><path id="_487293544" class="fil1 str3" d="M280.997 125.638v-1.777"/><path id="_487293496" class="fil1 str3" d="M280.997 118.529v-1.777"/><path id="_487293448" class="fil1 str3" d="M280.997 111.42v-1.776"/><path id="_487293400" class="fil1 str3" d="M280.997 104.312v-1.777"/><path id="_487293352" class="fil1 str3" d="M280.997 97.203v-1.777"/><path id="_487293304" class="fil1 str3" d="M280.997 90.094v-1.776"/><path id="_487293256" class="fil1 str3" d="M280.997 82.985v-1.776"/><path id="_487293208" class="fil1 str3" d="M280.997 75.877V74.1"/><path id="_487293160" class="fil1 str3" d="M279.127 79.841h1.776"/><path id="_487293112" class="fil1 str3" d="M279.127 86.949h1.776"/><path id="_487293064" class="fil1 str3" d="M279.127 94.058h1.776"/><path id="_487293016" class="fil1 str3" d="M279.127 101.167h1.776"/><path id="_487292968" class="fil1 str3" d="M279.127 108.276h1.776"/><path id="_487292920" class="fil1 str3" d="M279.127 115.384h1.776"/><path id="_487292872" class="fil1 str3" d="M279.127 122.493h1.776"/><path id="_487292824" class="fil1 str3" d="M279.127 129.602h1.776"/><path id="_487292776" class="fil1 str3" d="M279.127 136.711h1.776"/><path id="_487292728" class="fil1 str3" d="M279.127 143.819h1.776"/><path id="_487292680" class="fil1 str3" d="M279.127 150.928h1.776"/><path id="_487292632" class="fil1 str3" d="M279.127 158.037h1.776"/><path id="_487292584" class="fil1 str3" d="M279.127 165.146h1.776"/><path id="_487292536" class="fil1 str3" d="M279.127 172.254h1.776"/><path id="_487292488" class="fil1 str3" d="M279.127 179.363h1.776"/><path id="_487292440" class="fil1 str3" d="M279.127 186.472h1.776"/><path id="_487292392" class="fil1 str3" d="M279.127 193.581h1.776"/><path id="_487292344" class="fil1 str3" d="M279.127 200.689h1.776"/><path id="_487292296" class="fil1 str3" d="M280.016 201.578v-1.777"/><path id="_487292248" class="fil1 str3" d="M280.016 194.469v-1.777"/><path id="_487292200" class="fil1 str3" d="M280.016 187.36v-1.777"/><path id="_487292152" class="fil1 str3" d="M280.016 180.251v-1.776"/><path id="_487292104" class="fil1 str3" d="M280.016 173.143v-1.777"/><path id="_487292056" class="fil1 str3" d="M280.016 166.034v-1.777"/><path id="_487292008" class="fil1 str3" d="M280.016 158.925v-1.776"/><path id="_487291960" class="fil1 str3" d="M280.016 151.816v-1.776"/><path id="_487291912" class="fil1 str3" d="M280.016 144.708v-1.777"/><path id="_487291864" class="fil1 str3" d="M280.016 137.599v-1.777"/><path id="_487291816" class="fil1 str3" d="M280.016 130.49v-1.776"/><path id="_487291768" class="fil1 str3" d="M280.016 123.382v-1.777"/><path id="_487291720" class="fil1 str3" d="M280.016 116.273v-1.776"/><path id="_487291672" class="fil1 str3" d="M280.016 109.164v-1.777"/><path id="_487291624" class="fil1 str3" d="M280.016 102.055v-1.776"/><path id="_487291576" class="fil1 str3" d="M280.016 94.947V93.17"/><path id="_487291528" class="fil1 str3" d="M280.016 87.838v-1.777"/><path id="_487291480" class="fil1 str3" d="M280.016 80.729v-1.776"/><path id="_487291432" class="fil1 str3" d="M104.125 26.073h1.777"/><path id="_487291384" class="fil1 str3" d="M111.234 26.073h1.777"/><path id="_487291336" class="fil1 str3" d="M118.343 26.073h1.776"/><path id="_487291288" class="fil1 str3" d="M125.451 26.073h1.777"/><path id="_487291240" class="fil1 str3" d="M132.56 26.073h1.777"/><path id="_487291192" class="fil1 str3" d="M139.669 26.073h1.777"/><path id="_487291144" class="fil1 str3" d="M105.014 26.961v-1.777"/><path id="_487291096" class="fil1 str3" d="M108.568 23.407v-.27"/><path id="_487291048" class="fil1 str3" d="M112.123 26.961v-1.777"/><path id="_487291000" class="fil1 str3" d="M115.677 23.407v-.27"/><path id="_487290952" class="fil1 str3" d="M119.231 26.961v-1.777"/><path id="_487290904" class="fil1 str3" d="M122.786 23.407v-.27"/><path id="_487290856" class="fil1 str3" d="M126.34 26.961v-1.777"/><path id="_487290808" class="fil1 str3" d="M129.895 23.407v-.27"/><path id="_487290760" class="fil1 str3" d="M133.449 26.961v-1.777"/><path id="_487290712" class="fil1 str3" d="M137.003 23.407v-.27"/><path id="_487290664" class="fil1 str3" d="M140.558 26.961v-1.777"/><path id="_487290616" class="fil1 str3" d="M144.112 23.407v-.27"/><path id="_487290568" class="fil1 str3" d="M191.168 26.713h1.776"/><path id="_487290520" class="fil1 str3" d="M198.277 26.713h1.776"/><path id="_487290472" class="fil1 str3" d="M188.502 24.047v-.658"/><path id="_487290424" class="fil1 str3" d="M192.056 27.601v-1.776"/><path id="_487290376" class="fil1 str3" d="M195.611 24.047v-.658"/><path id="_487290328" class="fil1 str3" d="M199.165 27.601v-1.776"/><path id="_487290280" class="fil1 str3" d="M190.187 24.456h1.776"/><path id="_487290232" class="fil1 str3" d="M197.295 24.456h1.777"/><path id="_487290184" class="fil1 str3" d="M186.632 28.011h1.777"/><path id="_487290136" class="fil1 str3" d="M193.741 28.011h1.776"/><path id="_487290088" class="fil1 str3" d="M200.85 28.011h1.019"/><path id="_487290040" class="fil1 str3" d="M187.521 28.792v-1.67"/><path id="_487289992" class="fil1 str3" d="M191.075 25.345v-1.777"/><path id="_487289944" class="fil1 str3" d="M194.63 28.792v-1.67"/><path id="_487289896" class="fil1 str3" d="M198.184 25.345v-1.777"/><path id="_487289848" class="fil1 str3" d="M201.738 28.792v-1.67"/><path id="_487289800" class="fil2 str2" d="M87.135 28.81H5.975v139.284l-5.6-.066L.38 23.217l86.757.014z"/><path id="_487289752" class="fil1 str8" d="M96.931 210.01v11.195"/><path id="_487289704" class="fil1 str6" d="M85.737 168.03H80.41"/><path id="_487289656" class="fil1 str8" d="M80.41 168.028v11.196"/><path id="_487289608" class="fil1 str9" d="M255.06 210.01h16.791"/><path id="_487289560" class="fil1 str3" d="M271.851 210.01v11.195"/><path id="_487289512" class="fil1 str9" d="M271.851 221.204H255.06"/><path id="_487289464" class="fil1 str3" d="M255.06 221.204v-11.195"/><path id="_487289416" class="fil1 str9" d="M166.899 210.01h46.181"/><path id="_487289368" class="fil1 str3" d="M166.899 210.01h3.343m39.493 0h3.344"/><path id="_487289320" class="fil1 str3" d="M213.079 210.01v11.195"/><path id="_487289272" class="fil1 str9" d="M213.079 221.204h-46.18"/><path id="_487289224" class="fil1 str3" d="M213.079 221.204h-3.343m-39.493 0H166.9"/><path id="_487289176" class="fil1 str3" d="M166.899 221.204v-11.195"/><path id="_487289128" class="fil1 str9" d="M96.931 210.01h19.592"/><path id="_487289080" class="fil1 str3" d="M116.523 210.01v11.194"/><path id="_487289032" class="fil1 str9" d="M116.523 221.204H96.931"/><path id="_487288984" class="fil1 str3" d="M96.931 221.204V210.01"/><path id="_487288936" class="fil1 str6" d="M80.411 168.03h5.326"/><path id="_487288888" class="fil1 str3" d="M85.737 168.03v11.194"/><path id="_487288840" class="fil1 str3" d="M85.737 179.224h-5.325"/><path id="_487288792" class="fil1 str3" d="M80.411 179.224v-11.195"/><path id="_487288744" class="fil1 str3" d="M38.43 168.094v11.129"/><path id="_487288696" class="fil1 str8" d="M271.852 210.01H255.06"/><path id="_487288648" class="fil1 str8" d="M213.078 210.01h-46.179"/><path id="_487288600" class="fil1 str8" d="M116.523 210.01H96.932"/><path id="_487288552" class="fil1 str8" d="M38.43 168.029H.601"/><path id="_487288504" class="fil1 str8" d="M271.851 221.204h-16.792"/><path id="_487288456" class="fil1 str8" d="M213.079 221.204H166.9"/><path id="_487288408" class="fil1 str8" d="M116.523 221.204H96.931"/><path id="_487288360" class="fil1 str8" d="M85.737 179.224H80.41"/><path id="_487288312" class="fil1 str8" d="M38.43 179.223H.601"/><path id="_487288264" class="fil1 str8" d="M255.059 210.01v11.195"/><path id="_487288216" class="fil1 str8" d="M213.077 210.01l.003 11.195"/><path id="_487288168" class="fil1 str8" d="M38.43 168.094l.001 11.129"/><path id="_487288120" class="fil1 str8" d="M.362 168.094v11.129"/><path id="_487287976" class="fil1 str8" d="M166.899 210.01v11.195"/><path id="_487288000" class="fil1 str8" d="M116.522 210.01v11.195"/><path id="_487287880" class="fil1 str8" d="M271.851 210.019v11.185"/><path id="_487287760" class="fil2" d="M.362 168.028h38.02v11.195H.362z"/><path id="_487287640" class="fil2" d="M80.413 168.028h6.177v11.195h-6.177z"/><path id="_487287520" class="fil2" d="M97.19 210.004h19.332V221.2H97.189z"/><path id="_487287400" class="fil2" d="M167.121 210.004h45.958V221.2h-45.958z"/><path id="_487287280" class="fil2" d="M255.06 210.004h16.635V221.2H255.06z"/><path id="_487287160" class="fil2" d="M103.928 23.137h47.216v5.597h-47.216z"/><path id="_487287064" class="fil2" d="M179.71 23.137h22.173v5.597H179.71z"/><path id="_487287040" class="fil2" d="M202.079 21.796h81.157v7.296h-81.157z"/><path id="_487286944" class="fil1 str10" d="M181.945 31.342V38.3"/><path id="_487286848" class="fil1 str10" d="M181.945 31.342V38.3"/><path id="_487286752" class="fil1 str10" d="M188.136 31.342V38.3"/><path id="_487286656" class="fil1 str10" d="M200.775 31.342V38.3"/><path id="_487286560" class="fil1 str10" d="M187.084 31.342V38.3"/><path id="_487286464" class="fil1 str10" d="M199.722 31.342V38.3"/><path id="_487286368" class="fil1 str10" d="M183.101 31.345l.243 6.953"/><path id="_487286272" class="fil1 str10" d="M195.739 31.345l.243 6.953"/><path id="_487286176" class="fil1 str10" d="M189.292 31.345l.243 6.953"/><path id="_487286080" class="fil1 str10" d="M201.93 31.345l.243 6.953"/><path id="_487285984" class="fil1 str10" d="M185.06 31.351l-.485 6.94"/><path id="_487285888" class="fil1 str10" d="M197.699 31.351l-.486 6.94"/><path id="_487285792" class="fil1 str10" d="M191.252 31.351l-.485 6.94"/><path id="_487285696" class="fil1 str10" d="M203.89 31.351l-.485 6.94"/><path id="_487285600" class="fil1 str10" d="M186.305 31.351l-.485 6.94"/><path id="_487285504" class="fil1 str10" d="M198.943 31.351l-.485 6.94"/><path id="_487285408" class="fil1 str10" d="M192.497 31.351l-.486 6.94"/><path id="_487285192" class="fil1 str10" d="M205.135 31.351l-.485 6.94"/><path id="_487285024" class="fil1 str11" d="M180.667 29.66h25.656v10.217h-25.656z"/><path id="_487285048" class="fil1 str10" d="M180.667 34.386h25.656v.766h-25.656z"/><path id="_487284784" class="fil1 str11" d="M192.433 174.989v-17.37h17.369v17.37z"/><path id="_487284640" class="fil1 str11" d="M211.711 170.067v-7.527a.58.58 0 0 1 .579-.579h7.527a.58.58 0 0 1 .579.579v7.527a.58.58 0 0 1-.58.579h-7.526a.58.58 0 0 1-.579-.579z"/><path id="_487284664" class="fil1 str11" d="M218.997 171.713v-10.818h1.399v10.818z"/><path id="_487284376" class="fil1 str11" d="M204.881 155.593h-7.527a.58.58 0 0 1-.579-.579v-7.527a.58.58 0 0 1 .579-.579h7.527a.58.58 0 0 1 .579.58v7.526a.58.58 0 0 1-.579.579z"/><path id="_487284400" class="fil1 str11" d="M206.526 148.306h-10.818v-1.398h10.818z"/><path id="_487284088" class="fil1 str11" d="M204.881 176.963h-7.527a.58.58 0 0 0-.579.579v7.527c0 .318.26.579.579.579h7.527a.58.58 0 0 0 .579-.58v-7.526a.58.58 0 0 0-.579-.579z"/><path id="_487284064" class="fil1 str11" d="M206.526 184.249h-10.818v1.398h10.818z"/><path id="_487283848" class="fil1 str11" d="M105.389 117.781H93.866c-.792 0-1.44.648-1.44 1.44v18.726c0 .792.648 1.44 1.44 1.44h11.523c.792 0 1.44-.648 1.44-1.44V119.22c0-.792-.648-1.44-1.44-1.44z"/><path id="_487283728" class="fil1 str11" d="M108.22 117.781H92.735a.361.361 0 0 1-.36-.36v-2.881c0-.198.162-.36.36-.36h15.485a.36.36 0 0 1 .36.36v2.881a.36.36 0 0 1-.36.36z"/><path id="_487283608" class="fil1 str11" d="M108.22 164.581H92.735a.361.361 0 0 1-.36-.36v-2.881c0-.198.162-.36.36-.36h15.485a.36.36 0 0 1 .36.36v2.881a.36.36 0 0 1-.36.36z"/><path id="_487283464" class="fil1 str11" d="M89.168 164.582h2.881c.198 0 .36-.162.36-.36v-49.94a.361.361 0 0 0-.36-.361h-2.88a.361.361 0 0 0-.36.36v49.94a.36.36 0 0 0 .36.361z"/><path id="_487283488" class="fil1 str11" d="M105.389 139.337H93.866c-.792 0-1.44.648-1.44 1.44v18.726c0 .792.648 1.44 1.44 1.44h11.523c.792 0 1.44-.648 1.44-1.44v-18.726c0-.792-.648-1.44-1.44-1.44z"/><path id="_487283224" class="fil1 str11" d="M109.205 106.944l-14.55-5.296a.361.361 0 0 0-.462.215l-.985 2.707a.361.361 0 0 0 .215.462l14.55 5.296a.36.36 0 0 0 .462-.215l.985-2.708a.36.36 0 0 0-.215-.461z"/><path id="_487283104" class="fil1 str11" d="M115.504 89.638l-14.55-5.296a.361.361 0 0 0-.462.215l-.985 2.707a.36.36 0 0 0 .215.461l14.55 5.297a.361.361 0 0 0 .462-.216l.985-2.707a.36.36 0 0 0-.215-.461z"/><path id="_487282912" class="fil1 str11" d="M97.602 83.122l2.707.985c.186.068.314.19.285.27L93.13 104.88c-.03.081-.206.092-.392.024l-2.707-.985c-.186-.068-.314-.19-.284-.27l7.462-20.503c.03-.08.206-.092.392-.024z"/><path id="_487282984" class="fil1 str11" d="M106.54 105.988l-10.828-3.941c-.745-.271-1.202-.91-1.016-1.42l4.384-12.046c.186-.51.946-.705 1.691-.434l10.828 3.941c.745.271 1.202.91 1.017 1.42l-4.385 12.046c-.186.51-.946.705-1.691.434z"/><path id="_487282816" class="fil1 str11" d="M114.973 124.776h11.58v28.949h-11.58z"/><path id="_487282696" class="fil1 str10" d="M115.696 125.5h10.132v27.502h-10.132z"/><path id="_487282528" class="fil1 str11" d="M174.333 120.434h13.027v37.634h-13.027z"/><path id="_487282408" class="fil1 str10" d="M175.147 121.375h11.399v35.752h-11.399z"/><path id="_487282240" class="fil1 str11" d="M180.186 127.734h1.447v23.159h-1.447z"/><path id="_487282096" class="fil1 str11" d="M181.489 134.971h1.447v8.685h-1.447z"/><path id="_487281712" class="fil1 str11" d="M9.606 105.741h8.12c.558 0 1.014.457 1.014 1.015v16.809c0 .558-.456 1.014-1.015 1.014H9.606a1.018 1.018 0 0 1-1.014-1.014v-16.81c0-.557.456-1.014 1.014-1.014z"/><path id="_487281592" class="fil1 str11" d="M9.606 124.536h8.12c.558 0 1.014.457 1.014 1.015v16.809c0 .558-.456 1.015-1.015 1.015H9.606a1.018 1.018 0 0 1-1.014-1.015v-16.81c0-.557.456-1.014 1.014-1.014z"/><path id="_487281472" class="fil1 str11" d="M24.166 105.74h1.608c.11 0 .201.09.201.201v37.232a.2.2 0 0 1-.2.2h-1.61a.202.202 0 0 1-.2-.2V105.94c0-.11.09-.201.2-.201z"/><path id="_487281304" class="fil1 str11" d="M6.774 104.26h1.608c.111 0 .201.09.201.201v40.193c0 .11-.09.201-.2.201h-1.61a.202.202 0 0 1-.2-.201v-40.193c0-.11.09-.201.2-.201z"/><path id="_487281376" class="fil1 str11" d="M10.264 105.74H57.58c.92 0 1.672.753 1.672 1.673V141.7c0 .92-.752 1.673-1.672 1.673H10.264c-.92 0-1.673-.753-1.673-1.673v-34.288c0-.92.753-1.673 1.673-1.673z"/><path id="_487281208" class="fil1 str11" d="M6.74 90.284h11.58v11.58H6.74z"/><circle id="_487281088" class="fil1 str11" cx="12.53" cy="96.074" r="3.619"/><circle id="_487281016" class="fil1 str10" cx="12.53" cy="96.074" r="1.447"/><path id="_487280848" class="fil1 str11" d="M6.74 147.028h11.58v11.58H6.74z"/><circle id="_487280728" class="fil1 str11" cx="12.53" cy="152.818" r="3.619"/><circle id="_487280704" class="fil1 str10" cx="12.53" cy="152.818" r="1.447"/><path id="_487280488" class="fil1 str12" d="M248.954 125.065h6.27v1.486h-6.27z"/><path id="_487280440" class="fil1 str12" d="M266.082 119.467h-11.195v-5.597h11.195z"/><path id="_487280392" class="fil1 str12" d="M264.963 118.347h-8.957v-3.358h8.957z"/><path id="_487280344" class="fil1 str12" d="M254.887 125.065v-11.196h-5.597v11.196z"/><path id="_487280296" class="fil1 str12" d="M250.41 118.879h3.358v-3.89h-3.358z"/><path id="_487280248" class="fil1 str12" d="M250.41 120.055v3.891h3.358v-3.891z"/><path id="_487280200" class="fil1 str12" d="M248.954 110.509h6.27v-1.486h-6.27z"/><path id="_487280152" class="fil1 str12" d="M248.954 125.065h6.27v1.486h-6.27z"/><path id="_487280104" class="fil1 str12" d="M266.082 119.467h-11.195v-5.597h11.195z"/><path id="_487280056" class="fil1 str12" d="M264.963 118.347h-8.957v-3.358h8.957z"/><path id="_487280008" class="fil1 str12" d="M254.887 125.065v-11.196h-5.597v11.196z"/><path id="_487279960" class="fil1 str12" d="M250.41 118.879h3.358v-3.89h-3.358z"/><path id="_487279888" class="fil1 str12" d="M250.41 120.055v3.891h3.358v-3.891z"/><path id="_487279744" class="fil1 str12" d="M248.954 110.509h6.27v-1.486h-6.27z"/><path id="_487279864" class="fil1 str8" d="M277.277 119.48h-11.196m11.196 1.82h-13.014m0-1.833v1.833"/></g></g></svg>