<?xml version="1.0" encoding="UTF-8"?>
<!DOCTYPE svg PUBLIC "-//W3C//DTD SVG 1.1//EN" "http://www.w3.org/Graphics/SVG/1.1/DTD/svg11.dtd">
<!-- Creator: CorelDRAW -->
<svg xmlns="http://www.w3.org/2000/svg" xml:space="preserve" width="463px" height="363px" style="shape-rendering:geometricPrecision; text-rendering:geometricPrecision; image-rendering:optimizeQuality; fill-rule:evenodd; clip-rule:evenodd" viewBox="0 0 283.405 222.018" xmlns:xlink="http://www.w3.org/1999/xlink">
 <defs>
  <style type="text/css">
   <![CDATA[
    .str4 {stroke:#5A666F;stroke-width:0.110296;stroke-linecap:round;stroke-linejoin:round}
    .str3 {stroke:#5A666F;stroke-width:0.260398;stroke-linecap:round;stroke-linejoin:round}
    .str10 {stroke:#C5C6C6;stroke-width:0.289492}
    .str1 {stroke:#C5C6C6;stroke-width:0.361864}
    .str7 {stroke:#C5C6C6;stroke-width:0.362009;stroke-linecap:round;stroke-linejoin:round}
    .str5 {stroke:#5A666F;stroke-width:0.362009;stroke-linecap:round;stroke-linejoin:round}
    .str2 {stroke:#5A666F;stroke-width:0.50661;stroke-linecap:round;stroke-linejoin:round}
    .str11 {stroke:#C5C6C6;stroke-width:0.578983}
    .str6 {stroke:#5A666F;stroke-width:0.578983;stroke-linecap:round;stroke-linejoin:round}
    .str12 {stroke:#5A666F;stroke-width:0.579128;stroke-linecap:round;stroke-linejoin:round}
    .str8 {stroke:#5A666F;stroke-width:0.723584;stroke-linecap:round;stroke-linejoin:round}
    .str0 {stroke:#C5C6C6;stroke-width:0.723729}
    .str9 {stroke:#5A666F;stroke-width:0.260398;stroke-linecap:round;stroke-linejoin:round;stroke-dasharray:2.450835 2.450835}
    .fil1 {fill:none}
    .fil0 {fill:#C5C6C6}
    .fil2 {fill:#5A666F}
   ]]>
  </style>
 </defs>
 <g id="Слой_x0020_1">
  <metadata id="CorelCorpID_0Corel-Layer"/>
  <g id="_495095504">
   <g>
    <path id="_500127328" class="fil0" d="M152.087 68.7386l-0.654106 0c0,0 0.00202644,-0.402248 0,0.0403841 -0.0810576,17.1543 15.4387,24.5563 24.6776,24.5966 0.391682,0.00188169 -0.0403841,0 -0.0403841,0l0 -0.665686c-9.18614,-0.387195 -23.7059,-7.66429 -23.9831,-23.9713z"/>
    <polygon id="_500127352" class="fil0" points="176.07,68.7386 175.422,68.7386 175.422,93.3756 176.07,93.3756 "/>
   </g>
   <g>
    <path id="_500127136" class="fil0" d="M86.026 60.8727l0 0.654106c0,0 0.402248,-0.00202644 -0.0403841,0 -17.1543,0.0810576 -24.5563,-15.4387 -24.5966,-24.6776 -0.00188169,-0.391682 0,0.0403841 0,0.0403841l0.665686 0c0.387195,9.18614 7.66429,23.7059 23.9713,23.9831z"/>
    <polygon id="_500127160" class="fil0" points="86.026,36.8896 86.026,37.5379 61.389,37.5379 61.389,36.8896 "/>
   </g>
   <g>
    <path id="_500126944" class="fil0" d="M178.087 26.8962l0.715189 -0.00260542c0,0 -0.000723729,0.440896 -0.000144746,-0.0442922 0.0199749,-18.7932 -16.985,-26.8405 -27.0905,-26.8479 -0.428447,-0.000289492 0.0442922,-0.000144746 0.0442922,-0.000144746l0.00260542 0.729374c10.0494,0.38734 25.96,8.30175 26.3285,26.1655z"/>
    <polygon id="_500126968" class="fil0" points="151.566,27.2181 152.209,27.2158 152.11,0 151.466,0.00246068 "/>
   </g>
   <g>
    <path id="_500126752" class="fil0" d="M216.972 112.879l0.582312 0c0,0 -0.00202644,-0.358535 0,0.0360417 0.0720834,15.2846 -13.7453,21.8796 -21.9707,21.9158 -0.348693,0.00144746 0.0361864,0 0.0361864,0l0 -0.593313c8.17842,-0.34464 21.1054,-6.82882 21.3522,-21.3585z"/>
    <polygon id="_500126776" class="fil0" points="195.503,112.782 196.167,112.782 196.167,134.831 195.503,134.831 "/>
   </g>
   <g>
    <path id="_500126560" class="fil0" d="M222.748 51.4714l0 -0.493149c0,0 0.312217,0.00173695 -0.0312651,0 -13.3062,-0.0610827 -19.0477,11.6416 -19.0792,18.6081 -0.00115797,0.295281 0,-0.0306861 0,-0.0306861l0.516598 0c0.300058,-6.92681 5.94485,-17.8752 18.5939,-18.0842z"/>
    <polygon id="_500126584" class="fil0" points="222.825,69.6441 222.825,68.98 203.641,68.98 203.641,69.6441 "/>
   </g>
   <g>
    <path id="_500126368" class="fil0" d="M222.748 87.6434l0 -0.493149c0,0 0.312217,0.00173695 -0.0312651,0 -13.3062,-0.0610827 -19.0477,11.6416 -19.0792,18.6081 -0.00115797,0.295281 0,-0.0306861 0,-0.0306861l0.516598 0c0.300058,-6.92681 5.94485,-17.8752 18.5939,-18.0842z"/>
    <polygon id="_500126392" class="fil0" points="222.825,105.816 222.825,105.152 203.641,105.152 203.641,105.816 "/>
   </g>
   <g>
    <polygon id="_500126152" class="fil1 str0" points="276.371,164.837 259.074,164.837 259.074,179.965 276.371,179.965 "/>
    <polygon id="_500126104" class="fil1 str0" points="276.371,164.837 274.584,164.837 274.584,179.965 276.371,179.965 "/>
    <circle id="_500126056" class="fil1 str0" cx="263.336" cy="168.905" r="2.17119"/>
    <circle id="_500126008" class="fil1 str0" cx="263.336" cy="175.752" r="2.17119"/>
    <circle id="_500125912" class="fil1 str0" cx="270.325" cy="175.752" r="2.17119"/>
    <circle id="_500125936" class="fil1 str0" cx="270.325" cy="168.905" r="1.80932"/>
   </g>
   <g>
    <polygon id="_500125648" class="fil1 str0" points="263.367,125.067 276.324,125.067 276.324,142.436 263.367,142.436 "/>
    <path id="_500125672" class="fil1 str0" d="M272.271 125.067c0.203947,0 0.406012,0.00723729 0.606485,0.0204092l0 17.3287c-0.200473,0.0131719 -0.402538,0.0204092 -0.606485,0.0204092 -4.91774,0 -8.90404,-3.88831 -8.90404,-8.68475 0,-4.79644 3.9863,-8.68475 8.90404,-8.68475z"/>
   </g>
   <g>
    <polygon id="_500125432" class="fil1 str0" points="276.489,75.8828 254.837,75.8828 254.837,29.6678 276.489,29.6678 "/>
    <path id="_500125336" class="fil1 str0" d="M271.677 32.5335l-12.0285 0c-1.78298,0 -3.24144,1.45846 -3.24144,3.24144l0 26.604 0 0.109573c0,0.0593458 0.0015922,0.118547 0.00492136,0.177169 0.151404,4.97911 4.23497,8.96903 9.25085,8.96903 5.01587,0 9.0993,-3.98992 9.25085,-8.96903 0.00318441,-0.058622 0.00492136,-0.117823 0.00492136,-0.177169l0 -0.109573 0 -26.604c0,-1.78298 -1.4586,-3.24144 -3.24158,-3.24144z"/>
    <circle id="_500125360" class="fil1 str0" cx="265.663" cy="37.3293" r="0.925577"/>
   </g>
   <g>
    <path id="_500125096" class="fil1 str0" d="M237.616 62.0146c5.07189,0 9.18339,3.3044 9.18339,7.38073 0,1.67384 -0.693766,3.21741 -1.8623,4.45571l-14.642 0c-1.16853,-1.2383 -1.86244,-2.78187 -1.86244,-4.45571 0,-4.07633 4.1115,-7.38073 9.18339,-7.38073z"/>
    <path id="_500124976" class="fil1 str0" d="M237.615 63.4623c4.28303,0 7.75519,2.62381 7.75519,5.86061 0,1.82394 -1.10267,3.45334 -2.83166,4.52808l-9.84691 0c-1.72899,-1.07474 -2.83152,-2.70414 -2.83152,-4.52808 0,-3.2368 3.47216,-5.86061 7.7549,-5.86061z"/>
    <polygon id="_500124880" class="fil1 str0" points="230.056,73.5863 245.337,73.5863 243.177,77.8985 232.216,77.8985 "/>
    <polygon id="_500124784" class="fil1 str0" points="234.992,75.129 240.4,75.129 241.326,77.8985 234.067,77.8985 "/>
    <circle id="_500124808" class="fil1 str0" cx="237.696" cy="70.9769" r="1.00271"/>
   </g>
   <g>
    <polygon id="_500124616" class="fil1 str0" points="272.479,92.9715 272.479,98.3791 276.662,99.3047 276.662,92.0459 "/>
    <ellipse id="_500124496" class="fil1 str1" transform="matrix(2.16989E-014 0.819304 0.79238 -2.09858E-014 274.332 95.6754)" rx="0.941426" ry="0.973415"/>
    <path id="_500124376" class="fil1 str0" d="M276.662 91.3336l0 8.6833 0 1.5427 -1.5427 0 -0.940268 0 -1.38261 0c-0.848355,0 -1.54256,-0.694201 -1.54256,-1.5427l0 -8.6833c0,-0.848355 0.694201,-1.54256 1.54256,-1.54256l1.38261 0 0.940268 0 1.5427 0 0 1.54256z"/>
    <path id="_500124256" class="fil1 str0" d="M255.336 95.6626c0,3.23101 2.80966,5.85019 6.27545,5.85019 0.638184,0 1.25408,-0.0891634 1.83422,-0.254174 1.11686,-0.132587 2.23372,-0.226817 3.35057,-0.403696l4.18315 -0.816656 0 -8.6833c-1.62796,-0.240857 -2.63886,-0.635868 -4.26682,-0.876725l-3.0537 -0.3471c-0.641803,-0.206263 -1.3305,-0.318875 -2.04743,-0.318875 -3.46579,0 -6.27545,2.61917 -6.27545,5.85033z"/>
    <path id="_500124280" class="fil1 str0" d="M256.816 95.6623l0 0.000289492c0,2.52538 2.0661,4.59163 4.59163,4.59163l1.36075 0c2.52552,0 4.59163,-2.06625 4.59163,-4.59163l0 -0.000289492c0,-2.52552 -2.0661,-4.59163 -4.59163,-4.59163l-1.36075 0c-2.52552,0 -4.59163,2.0661 -4.59163,4.59163z"/>
   </g>
   <line id="_500124160" class="fil1 str2" x1="201.883" y1="21.9993" x2="201.883" y2="28.7927"/>
   <line id="_500124112" class="fil1 str3" x1="1.40013" y1="24.2297" x2="3.17659" y2="24.2297"/>
   <line id="_500124064" class="fil1 str3" x1="8.50859" y1="24.2297" x2="10.2855" y2="24.2297"/>
   <line id="_500124016" class="fil1 str3" x1="15.6176" y1="24.2297" x2="17.394" y2="24.2297"/>
   <line id="_500123968" class="fil1 str3" x1="22.7261" y1="24.2297" x2="24.503" y2="24.2297"/>
   <line id="_500123920" class="fil1 str3" x1="29.8351" y1="24.2297" x2="31.6115" y2="24.2297"/>
   <line id="_500123872" class="fil1 str3" x1="36.9436" y1="24.2297" x2="38.7205" y2="24.2297"/>
   <line id="_500123824" class="fil1 str3" x1="44.0525" y1="24.2297" x2="45.829" y2="24.2297"/>
   <line id="_500123776" class="fil1 str3" x1="51.1611" y1="24.2297" x2="52.938" y2="24.2297"/>
   <line id="_500123728" class="fil1 str3" x1="58.27" y1="24.2297" x2="60.0465" y2="24.2297"/>
   <line id="_500123680" class="fil1 str3" x1="65.3786" y1="24.2297" x2="67.1554" y2="24.2297"/>
   <line id="_500123632" class="fil1 str3" x1="72.4875" y1="24.2297" x2="74.264" y2="24.2297"/>
   <line id="_500123584" class="fil1 str3" x1="79.5961" y1="24.2297" x2="81.3724" y2="24.2297"/>
   <line id="_500123536" class="fil1 str3" x1="86.705" y1="24.2297" x2="87.1361" y2="24.2297"/>
   <line id="_500123488" class="fil1 str3" x1="4.95465" y1="27.7842" x2="6.73097" y2="27.7842"/>
   <line id="_500123440" class="fil1 str3" x1="12.0631" y1="27.7842" x2="13.8396" y2="27.7842"/>
   <line id="_500123392" class="fil1 str3" x1="19.1717" y1="27.7842" x2="20.9485" y2="27.7842"/>
   <line id="_500123344" class="fil1 str3" x1="26.2806" y1="27.7842" x2="28.0571" y2="27.7842"/>
   <line id="_500123296" class="fil1 str3" x1="33.3891" y1="27.7842" x2="35.166" y2="27.7842"/>
   <line id="_500123248" class="fil1 str3" x1="40.4981" y1="27.7842" x2="42.2746" y2="27.7842"/>
   <line id="_500123200" class="fil1 str3" x1="47.6066" y1="27.7842" x2="49.3835" y2="27.7842"/>
   <line id="_500123152" class="fil1 str3" x1="54.7156" y1="27.7842" x2="56.4924" y2="27.7842"/>
   <line id="_500123104" class="fil1 str3" x1="61.8241" y1="27.7842" x2="63.601" y2="27.7842"/>
   <line id="_500123056" class="fil1 str3" x1="68.9331" y1="27.7842" x2="70.7095" y2="27.7842"/>
   <line id="_500123008" class="fil1 str3" x1="76.042" y1="27.7842" x2="77.8185" y2="27.7842"/>
   <line id="_500122960" class="fil1 str3" x1="83.1505" y1="27.7842" x2="84.927" y2="27.7842"/>
   <line id="_500122912" class="fil1 str3" x1="1.40013" y1="31.3388" x2="3.17659" y2="31.3388"/>
   <line id="_500122864" class="fil1 str3" x1="4.95465" y1="34.8931" x2="5.97525" y2="34.8931"/>
   <line id="_500122816" class="fil1 str3" x1="1.40013" y1="38.4477" x2="3.17659" y2="38.4477"/>
   <line id="_500122768" class="fil1 str3" x1="4.95465" y1="42.0017" x2="5.97525" y2="42.0017"/>
   <line id="_500122720" class="fil1 str3" x1="1.40013" y1="45.5561" x2="3.17659" y2="45.5561"/>
   <line id="_500122672" class="fil1 str3" x1="4.95465" y1="49.1102" x2="5.97525" y2="49.1102"/>
   <line id="_500122624" class="fil1 str3" x1="1.40013" y1="52.6647" x2="3.17659" y2="52.6647"/>
   <line id="_500122576" class="fil1 str3" x1="4.95465" y1="56.2193" x2="5.97525" y2="56.2193"/>
   <line id="_500122528" class="fil1 str3" x1="1.40013" y1="59.7736" x2="3.17659" y2="59.7736"/>
   <line id="_500122480" class="fil1 str3" x1="4.95465" y1="63.3277" x2="5.97525" y2="63.3277"/>
   <line id="_500122432" class="fil1 str3" x1="1.40013" y1="66.8822" x2="3.17659" y2="66.8822"/>
   <line id="_500122384" class="fil1 str3" x1="4.95465" y1="70.4368" x2="5.97525" y2="70.4368"/>
   <line id="_500122336" class="fil1 str3" x1="1.40013" y1="73.9911" x2="3.17659" y2="73.9911"/>
   <line id="_500122288" class="fil1 str3" x1="4.95465" y1="77.5452" x2="5.97525" y2="77.5452"/>
   <line id="_500122240" class="fil1 str3" x1="1.40013" y1="81.0997" x2="3.17659" y2="81.0997"/>
   <line id="_500122192" class="fil1 str3" x1="4.95465" y1="84.6541" x2="5.97525" y2="84.6541"/>
   <line id="_500122144" class="fil1 str3" x1="1.40013" y1="88.2086" x2="3.17659" y2="88.2086"/>
   <line id="_500122096" class="fil1 str3" x1="4.95465" y1="91.7627" x2="5.97525" y2="91.7627"/>
   <line id="_500122048" class="fil1 str3" x1="1.40013" y1="95.3173" x2="3.17659" y2="95.3173"/>
   <line id="_500122000" class="fil1 str3" x1="4.95465" y1="98.8716" x2="5.97525" y2="98.8716"/>
   <line id="_500121952" class="fil1 str3" x1="1.40013" y1="102.426" x2="3.17659" y2="102.426"/>
   <line id="_500121904" class="fil1 str3" x1="4.95465" y1="105.98" x2="5.97525" y2="105.98"/>
   <line id="_500121880" class="fil1 str3" x1="1.40013" y1="109.535" x2="3.17659" y2="109.535"/>
   <line id="_487304920" class="fil1 str3" x1="4.95465" y1="113.089" x2="5.97525" y2="113.089"/>
   <line id="_487304872" class="fil1 str3" x1="1.40013" y1="116.644" x2="3.17659" y2="116.644"/>
   <line id="_487304824" class="fil1 str3" x1="4.95465" y1="120.198" x2="5.97525" y2="120.198"/>
   <line id="_487304776" class="fil1 str3" x1="1.40013" y1="123.752" x2="3.17659" y2="123.752"/>
   <line id="_487304728" class="fil1 str3" x1="4.95465" y1="127.307" x2="5.97525" y2="127.307"/>
   <line id="_487304680" class="fil1 str3" x1="1.40013" y1="130.861" x2="3.17659" y2="130.861"/>
   <line id="_487304632" class="fil1 str3" x1="4.95465" y1="134.415" x2="5.97525" y2="134.415"/>
   <line id="_487304584" class="fil1 str3" x1="1.40013" y1="137.97" x2="3.17659" y2="137.97"/>
   <line id="_487304536" class="fil1 str3" x1="4.95465" y1="141.524" x2="5.97525" y2="141.524"/>
   <line id="_487304488" class="fil1 str3" x1="1.40013" y1="145.079" x2="3.17659" y2="145.079"/>
   <line id="_487304440" class="fil1 str3" x1="4.95465" y1="148.633" x2="5.97525" y2="148.633"/>
   <line id="_487304392" class="fil1 str3" x1="1.40013" y1="152.187" x2="3.17659" y2="152.187"/>
   <line id="_487304344" class="fil1 str3" x1="4.95465" y1="155.742" x2="5.97525" y2="155.742"/>
   <line id="_487304296" class="fil1 str3" x1="1.40013" y1="159.296" x2="3.17659" y2="159.296"/>
   <line id="_487304248" class="fil1 str3" x1="4.95465" y1="162.85" x2="5.97525" y2="162.85"/>
   <line id="_487304200" class="fil1 str3" x1="1.40013" y1="166.405" x2="3.17659" y2="166.405"/>
   <line id="_487304152" class="fil1 str3" x1="2.28872" y1="167.293" x2="2.28872" y2="165.516"/>
   <line id="_487304104" class="fil1 str3" x1="2.28872" y1="160.184" x2="2.28872" y2="158.408"/>
   <line id="_487304056" class="fil1 str3" x1="2.28872" y1="153.076" x2="2.28872" y2="151.299"/>
   <line id="_487304008" class="fil1 str3" x1="2.28872" y1="145.967" x2="2.28872" y2="144.19"/>
   <line id="_487303960" class="fil1 str3" x1="2.28872" y1="138.858" x2="2.28872" y2="137.082"/>
   <line id="_487303912" class="fil1 str3" x1="2.28872" y1="131.749" x2="2.28872" y2="129.973"/>
   <line id="_487303864" class="fil1 str3" x1="2.28872" y1="124.641" x2="2.28872" y2="122.864"/>
   <line id="_487303816" class="fil1 str3" x1="2.28872" y1="117.532" x2="2.28872" y2="115.755"/>
   <line id="_487303768" class="fil1 str3" x1="2.28872" y1="110.423" x2="2.28872" y2="108.647"/>
   <line id="_487303720" class="fil1 str3" x1="2.28872" y1="103.314" x2="2.28872" y2="101.538"/>
   <line id="_487303672" class="fil1 str3" x1="2.28872" y1="96.2058" x2="2.28872" y2="94.4294"/>
   <line id="_487303624" class="fil1 str3" x1="2.28872" y1="89.0972" x2="2.28872" y2="87.3205"/>
   <line id="_487303576" class="fil1 str3" x1="2.28872" y1="81.9883" x2="2.28872" y2="80.2119"/>
   <line id="_487303528" class="fil1 str3" x1="2.28872" y1="74.8797" x2="2.28872" y2="73.103"/>
   <line id="_487303480" class="fil1 str3" x1="5.84324" y1="163.739" x2="5.84324" y2="161.962"/>
   <line id="_487303432" class="fil1 str3" x1="5.84324" y1="156.63" x2="5.84324" y2="154.853"/>
   <line id="_487303384" class="fil1 str3" x1="5.84324" y1="149.521" x2="5.84324" y2="147.745"/>
   <line id="_487303336" class="fil1 str3" x1="5.84324" y1="142.413" x2="5.84324" y2="140.636"/>
   <line id="_487303288" class="fil1 str3" x1="5.84324" y1="135.304" x2="5.84324" y2="133.527"/>
   <line id="_487303240" class="fil1 str3" x1="5.84324" y1="128.195" x2="5.84324" y2="126.418"/>
   <line id="_487303192" class="fil1 str3" x1="5.84324" y1="121.086" x2="5.84324" y2="119.31"/>
   <line id="_487303144" class="fil1 str3" x1="5.84324" y1="113.978" x2="5.84324" y2="112.201"/>
   <line id="_487303096" class="fil1 str3" x1="5.84324" y1="106.869" x2="5.84324" y2="105.092"/>
   <line id="_487303048" class="fil1 str3" x1="5.84324" y1="99.7602" x2="5.84324" y2="97.9839"/>
   <line id="_487303000" class="fil1 str3" x1="5.84324" y1="92.6513" x2="5.84324" y2="90.8749"/>
   <line id="_487302952" class="fil1 str3" x1="5.84324" y1="85.5429" x2="5.84324" y2="83.7664"/>
   <line id="_487302904" class="fil1 str3" x1="5.84324" y1="78.4343" x2="5.84324" y2="76.6575"/>
   <line id="_487302856" class="fil1 str3" x1="5.84324" y1="71.3254" x2="5.84324" y2="69.5489"/>
   <line id="_487302808" class="fil1 str3" x1="5.84324" y1="64.2163" x2="5.84324" y2="62.44"/>
   <line id="_487302760" class="fil1 str3" x1="5.84324" y1="57.1078" x2="5.84324" y2="55.3314"/>
   <line id="_487302712" class="fil1 str3" x1="5.84324" y1="49.9992" x2="5.84324" y2="48.2225"/>
   <line id="_487302664" class="fil1 str3" x1="5.84324" y1="42.8903" x2="5.84324" y2="41.1139"/>
   <line id="_487302616" class="fil1 str3" x1="5.84324" y1="35.7817" x2="5.84324" y2="34.005"/>
   <line id="_487302568" class="fil1 str3" x1="5.84324" y1="28.6728" x2="5.84324" y2="26.8964"/>
   <line id="_487302520" class="fil1 str3" x1="9.39733" y1="25.1183" x2="9.39733" y2="23.342"/>
   <line id="_487302472" class="fil1 str3" x1="12.9517" y1="28.6728" x2="12.9517" y2="26.8964"/>
   <line id="_487302424" class="fil1 str3" x1="16.5062" y1="25.1183" x2="16.5062" y2="23.342"/>
   <line id="_487302376" class="fil1 str3" x1="20.0607" y1="28.6728" x2="20.0607" y2="26.8964"/>
   <line id="_487302328" class="fil1 str3" x1="23.6147" y1="25.1183" x2="23.6147" y2="23.342"/>
   <line id="_487302280" class="fil1 str3" x1="27.1692" y1="28.6728" x2="27.1692" y2="26.8964"/>
   <line id="_487302232" class="fil1 str3" x1="30.7237" y1="25.1183" x2="30.7237" y2="23.342"/>
   <line id="_487302184" class="fil1 str3" x1="34.2778" y1="28.6728" x2="34.2778" y2="26.8964"/>
   <line id="_487302136" class="fil1 str3" x1="37.8322" y1="25.1183" x2="37.8322" y2="23.342"/>
   <line id="_487302088" class="fil1 str3" x1="41.3867" y1="28.6728" x2="41.3867" y2="26.8964"/>
   <line id="_487302040" class="fil1 str3" x1="44.9412" y1="25.1183" x2="44.9412" y2="23.342"/>
   <line id="_487301992" class="fil1 str3" x1="48.4953" y1="28.6728" x2="48.4953" y2="26.8964"/>
   <line id="_487301944" class="fil1 str3" x1="52.0497" y1="25.1183" x2="52.0497" y2="23.342"/>
   <line id="_487301896" class="fil1 str3" x1="55.6042" y1="28.6728" x2="55.6042" y2="26.8964"/>
   <line id="_487301848" class="fil1 str3" x1="59.1588" y1="25.1183" x2="59.1588" y2="23.342"/>
   <line id="_487301800" class="fil1 str3" x1="62.7127" y1="28.6728" x2="62.7127" y2="26.8964"/>
   <line id="_487301752" class="fil1 str3" x1="66.2672" y1="25.1183" x2="66.2672" y2="23.342"/>
   <line id="_487301704" class="fil1 str3" x1="69.8217" y1="28.6728" x2="69.8217" y2="26.8964"/>
   <line id="_487301656" class="fil1 str3" x1="73.3761" y1="25.1183" x2="73.3761" y2="23.342"/>
   <line id="_487301608" class="fil1 str3" x1="76.9302" y1="28.6728" x2="76.9302" y2="26.8964"/>
   <line id="_487301560" class="fil1 str3" x1="80.4847" y1="25.1183" x2="80.4847" y2="23.342"/>
   <line id="_487301512" class="fil1 str3" x1="84.0392" y1="28.6728" x2="84.0392" y2="26.8964"/>
   <path id="_487301464" class="fil1 str2" d="M5.97438 28.7922l81.161 0.0186722m-81.161 -0.0961112l-0.0015922 139.313m-5.59413 -144.811l-0.00289492 144.811m282.67 -139.236l0 172.821m-5.59688 -172.821l0 172.821"/>
   <line id="_487301416" class="fil1 str4" x1="118.411" y1="216.083" x2="118.411" y2="218.116"/>
   <line id="_487301368" class="fil1 str5" x1="116.525" y1="213.373" x2="166.903" y2="213.373"/>
   <line id="_487301320" class="fil1 str5" x1="166.901" y1="218.954" x2="116.524" y2="218.954"/>
   <line id="_487301272" class="fil1 str4" x1="166.902" y1="213.374" x2="165.015" y2="213.374"/>
   <line id="_487301224" class="fil1 str4" x1="165.016" y1="216.083" x2="165.016" y2="218.125"/>
   <line id="_487301176" class="fil1 str4" x1="165.016" y1="218.134" x2="166.903" y2="218.134"/>
   <line id="_487301128" class="fil1 str5" x1="165.016" y1="213.374" x2="116.525" y2="213.374"/>
   <line id="_487301080" class="fil1 str5" x1="116.525" y1="218.374" x2="116.525" y2="218.954"/>
   <line id="_487301032" class="fil1 str5" x1="166.901" y1="218.394" x2="166.901" y2="218.954"/>
   <line id="_487300984" class="fil1 str5" x1="116.525" y1="218.114" x2="166.903" y2="218.154"/>
   <line id="_487300936" class="fil1 str5" x1="116.525" y1="216.083" x2="166.903" y2="216.136"/>
   <polygon id="_487300888" class="fil2 str2" points="87.1356,23.1517 103.928,23.1517 103.928,33.6904 87.1356,33.6904 "/>
   <polygon id="_487300840" class="fil2 str2" points="271.851,201.613 283.044,201.613 283.044,218.406 271.851,218.406 "/>
   <polygon id="_487300792" class="fil2 str2" points="85.7365,168.028 96.932,168.028 96.932,218.406 85.7365,218.406 "/>
   <line id="_487300744" class="fil1 str4" x1="40.6602" y1="174.134" x2="40.6602" y2="176.093"/>
   <line id="_487300696" class="fil1 str5" x1="38.4296" y1="171.388" x2="80.4113" y2="171.388"/>
   <line id="_487300648" class="fil1 str5" x1="80.4113" y1="176.985" x2="38.4307" y2="176.985"/>
   <line id="_487300600" class="fil1 str4" x1="78.5257" y1="174.134" x2="78.5257" y2="176.115"/>
   <line id="_487300552" class="fil1 str5" x1="80.4113" y1="174.134" x2="38.3819" y2="174.134"/>
   <line id="_487300504" class="fil1 str5" x1="38.4307" y1="176.107" x2="80.4126" y2="176.125"/>
   <line id="_487300456" class="fil1 str4" x1="215.312" y1="216.094" x2="215.312" y2="218.053"/>
   <line id="_487300408" class="fil1 str5" x1="213.081" y1="213.348" x2="255.063" y2="213.348"/>
   <line id="_487300360" class="fil1 str5" x1="255.063" y1="218.946" x2="213.082" y2="218.946"/>
   <line id="_487300312" class="fil1 str4" x1="253.177" y1="216.094" x2="253.177" y2="218.075"/>
   <line id="_487300264" class="fil1 str5" x1="255.063" y1="216.094" x2="213.033" y2="216.094"/>
   <line id="_487300216" class="fil1 str5" x1="213.082" y1="218.068" x2="255.064" y2="218.085"/>
   <line id="_487300168" class="fil1 str2" x1="194.886" y1="28.7922" x2="201.883" y2="28.7922"/>
   <path id="_487300120" class="fil1 str6" d="M189.009 70.2318l0 139.778m2.23922 -96.1383l0 96.1383"/>
   <polyline id="_487300072" class="fil1 str6" points="191.248,111.633 195.172,111.633 195.172,113.872 191.248,113.872 "/>
   <polyline id="_487300024" class="fil1 str2" points="221.354,111.633 217.843,111.633 217.843,113.872 221.334,113.872 "/>
   <polyline id="_487299976" class="fil1 str6" points="87.1614,67.9929 151.144,67.9929 151.144,70.2321 87.1614,70.2321 "/>
   <polyline id="_487299928" class="fil1 str6" points="191.248,67.9329 176.612,67.9329 176.612,70.2314 189.009,70.2314 "/>
   <polyline id="_487299880" class="fil1 str6" points="84.9216,168.028 84.9216,61.9755 87.1642,61.9755 87.1614,67.9937 "/>
   <line id="_487299832" class="fil1 str6" x1="87.161" y1="70.2318" x2="87.1365" y2="165.789"/>
   <polyline id="_487299784" class="fil1 str2" points="84.9216,28.8102 84.9216,36.5057 87.1354,36.5057 87.1354,28.7328 "/>
   <path id="_487299736" class="fil1 str2" d="M235.328 113.873l41.4216 0m-55.4153 -0.00130271l55.4153 0.00130271"/>
   <polyline id="_487299688" class="fil1 str6" points="87.1365,165.79 96.9304,165.79 96.9304,168.028 84.9216,168.031 84.9216,61.9751 "/>
   <path id="_487299640" class="fil1 str2" d="M224.739 81.959l52.7089 0m-56.0938 31.9133l56.0938 0"/>
   <line id="_487299592" class="fil1 str6" x1="191.248" y1="67.9329" x2="191.248" y2="111.633"/>
   <line id="_487299544" class="fil1 str2" x1="221.354" y1="113.872" x2="277.448" y2="113.872"/>
   <polygon id="_487299496" class="fil1 str7" points="225.411,29.5264 242.203,29.5264 242.203,46.3189 225.411,46.3189 "/>
   <line id="_487299448" class="fil1 str8" x1="96.9313" y1="210.01" x2="96.9313" y2="221.205"/>
   <line id="_487299400" class="fil1 str6" x1="85.7365" y1="168.03" x2="80.4097" y2="168.03"/>
   <line id="_487299352" class="fil1 str8" x1="80.4102" y1="168.028" x2="80.4102" y2="179.224"/>
   <line id="_487299304" class="fil1 str9" x1="255.06" y1="210.01" x2="271.851" y2="210.01"/>
   <line id="_487299256" class="fil1 str3" x1="271.851" y1="210.01" x2="271.851" y2="221.205"/>
   <line id="_487299208" class="fil1 str9" x1="271.851" y1="221.204" x2="255.06" y2="221.204"/>
   <line id="_487299160" class="fil1 str3" x1="255.06" y1="221.204" x2="255.06" y2="210.009"/>
   <line id="_487299112" class="fil1 str9" x1="166.899" y1="210.01" x2="213.08" y2="210.01"/>
   <path id="_487299064" class="fil1 str3" d="M166.899 210.01l3.34334 0m39.4924 0l3.34464 0"/>
   <line id="_487299016" class="fil1 str3" x1="213.079" y1="210.01" x2="213.079" y2="221.205"/>
   <line id="_487298968" class="fil1 str9" x1="213.079" y1="221.204" x2="166.899" y2="221.204"/>
   <path id="_487298920" class="fil1 str3" d="M213.079 221.204l-3.34334 0m-39.4924 0l-3.34464 0"/>
   <line id="_487298872" class="fil1 str3" x1="166.899" y1="221.204" x2="166.899" y2="210.009"/>
   <line id="_487298824" class="fil1 str9" x1="96.9313" y1="210.01" x2="116.523" y2="210.01"/>
   <line id="_487298776" class="fil1 str3" x1="116.523" y1="210.01" x2="116.523" y2="221.204"/>
   <line id="_487298728" class="fil1 str9" x1="116.523" y1="221.204" x2="96.9313" y2="221.204"/>
   <line id="_487298680" class="fil1 str3" x1="96.9313" y1="221.204" x2="96.9313" y2="210.01"/>
   <line id="_487298632" class="fil1 str6" x1="80.4113" y1="168.03" x2="85.7365" y2="168.03"/>
   <line id="_487298584" class="fil1 str3" x1="85.737" y1="168.03" x2="85.737" y2="179.224"/>
   <line id="_487298536" class="fil1 str3" x1="85.737" y1="179.224" x2="80.4118" y2="179.224"/>
   <line id="_487298488" class="fil1 str3" x1="80.4113" y1="179.224" x2="80.4113" y2="168.029"/>
   <line id="_487298440" class="fil1 str3" x1="38.4296" y1="168.094" x2="38.4296" y2="179.223"/>
   <line id="_487298392" class="fil1 str8" x1="271.852" y1="210.01" x2="255.06" y2="210.01"/>
   <line id="_487298344" class="fil1 str8" x1="213.078" y1="210.01" x2="166.899" y2="210.01"/>
   <line id="_487298296" class="fil1 str8" x1="116.523" y1="210.01" x2="96.9317" y2="210.01"/>
   <line id="_487298248" class="fil1 str8" x1="271.851" y1="221.204" x2="255.059" y2="221.204"/>
   <line id="_487298200" class="fil1 str8" x1="213.079" y1="221.204" x2="166.9" y2="221.204"/>
   <line id="_487298152" class="fil1 str8" x1="116.523" y1="221.204" x2="96.9313" y2="221.204"/>
   <line id="_487298104" class="fil1 str8" x1="85.737" y1="179.224" x2="80.4102" y2="179.224"/>
   <line id="_487298056" class="fil1 str8" x1="255.059" y1="210.01" x2="255.059" y2="221.205"/>
   <line id="_487298008" class="fil1 str8" x1="213.077" y1="210.01" x2="213.08" y2="221.205"/>
   <line id="_487297960" class="fil1 str8" x1="38.4296" y1="168.094" x2="38.4312" y2="179.223"/>
   <line id="_487297912" class="fil1 str8" x1="166.899" y1="210.01" x2="166.899" y2="221.205"/>
   <line id="_487297864" class="fil1 str8" x1="116.522" y1="210.01" x2="116.522" y2="221.205"/>
   <line id="_487297816" class="fil1 str8" x1="271.851" y1="210.019" x2="271.851" y2="221.204"/>
   <path id="_487297768" class="fil1 str4" d="M271.882 219.73l1.325 -1.325m-0.913925 2.79996l2.79837 -2.79996m-0.913925 2.79996l2.79996 -2.79996m-0.914359 2.79996l2.79866 -2.79996m-0.914214 2.79996l2.79982 -2.79996m-0.914214 2.79996l2.79866 -2.79996m-10.0946 2.79996l-0.655264 -0.655554m2.53956 0.655554l-2.53956 -2.54m4.42401 2.54l-2.79837 -2.79996m4.68441 2.79996l-2.79996 -2.79996m4.68426 2.79996l-2.79866 -2.79996m4.68426 2.79996l-2.79982 -2.79996m3.90654 2.0221l-2.02094 -2.0221"/>
   <polygon id="_487297720" class="fil1 str2" points="271.882,218.405 283.152,218.405 283.121,221.204 271.882,221.205 "/>
   <path id="_487297672" class="fil1 str4" d="M81.8403 179.804l0.578983 -0.579417m-0.578983 2.46502l2.46502 -2.46502m-2.46502 4.34932l3.92073 -3.92116m-3.92073 5.8072l3.92073 -3.92275m-3.92073 5.8072l3.92073 -3.92116m-3.92232 5.80677l3.92232 -3.92232m-3.92232 5.80677l3.92116 -3.92116m-3.92116 5.80677l3.92116 -3.92087m-3.92116 5.80517l3.92116 -3.92073m-3.92116 5.80677l3.92116 -3.92116m-3.92116 5.80677l3.92116 -3.92116m-3.92116 5.80561l3.91943 -3.92116m-3.91943 5.8072l3.91943 -3.92116m-3.92073 5.80517l3.92073 -3.91957m-3.92073 5.80561l3.92073 -3.92116m-3.92073 5.80546l3.91957 -3.91957m-3.91957 5.80517l3.91957 -3.91943m-3.91957 5.80546l3.91957 -3.92116m-3.91957 5.80561l3.91957 -3.92m-3.91957 5.80561l3.91957 -3.91957m-3.91957 5.80402l3.91798 -3.91957m-3.91957 5.80517l3.91957 -3.91957m-3.84618 5.73222l3.84618 -3.84618m-1.96188 3.84618l1.96058 -1.96058m-0.0749783 1.96058l0.0749783 -0.076281m0.00130271 -1.8856l0.838078 -0.838078m-0.839381 2.72368l2.72368 -2.72368m-0.914214 2.79996l2.79982 -2.79996m-0.91378 2.79996l2.79823 -2.79996m-0.913925 2.79996l2.79837 -2.79996m-0.912622 2.79996l2.79866 -2.79996m-0.914359 2.79996l1.82814 -1.82988m-14.7785 1.82988l-0.317717 -0.316125m2.20216 0.316125l-2.20216 -2.20216m4.08617 2.20216l-0.167905 -0.168339m2.05394 0.168339l-2.05264 -2.05264m-0.00130271 1.8843l-3.91668 -3.91783m3.91668 2.03223l-3.91668 -3.91668m7.85492 5.97062l-2.79866 -2.79996m4.68441 2.79996l-2.79996 -2.79996m4.68426 2.79996l-2.79823 -2.79996m4.68267 2.79996l-2.79837 -2.79996m-6.79306 -1.13712l-3.91798 -3.91783m3.91798 2.03223l-3.91798 -3.91827m3.91798 2.03382l-3.91798 -3.91827m3.91957 2.03397l-3.91957 -3.91841m15.0947 13.2095l-2.49961 -2.49961m2.49961 0.615314l-0.613577 -0.615314m-10.5615 -8.67592l-3.91957 -3.91957m3.91957 2.03397l-3.91957 -3.91827m3.91957 2.03382l-3.91827 -3.91827m3.91827 2.03397l-3.91827 -3.91957m3.91943 2.03513l-3.91943 -3.91957m3.91943 2.03513l-3.91943 -3.91943m3.91943 2.03382l-3.91943 -3.91986m3.91943 2.03556l-3.91943 -3.92m3.92116 2.03556l-3.92116 -3.91957m3.92116 2.03513l-3.92116 -3.92116m3.92116 2.03686l-3.91957 -3.92116m3.91957 2.03556l-3.91957 -3.92m3.91957 2.03556l-3.91957 -3.92116m3.92073 2.03672l-3.92073 -3.92116m3.92073 2.03686l-3.92073 -3.92116m3.92073 2.03672l-2.23473 -2.23516m2.23473 0.349127l-0.349127 -0.349127"/>
   <polygon id="_487297624" class="fil1 str2" points="85.7545,218.405 96.9325,218.405 96.9325,221.204 85.7545,221.205 "/>
   <polygon id="_487297576" class="fil1 str2" points="85.7545,221.205 81.8362,221.205 81.8407,179.224 85.7619,179.224 "/>
   <line id="_487297528" class="fil1 str2" x1="81.2768" y1="221.764" x2="81.2784" y2="179.763"/>
   <polygon id="_487297480" class="fil1 str2" points="221.335,106.696 224.738,106.696 224.738,113.874 221.335,113.873 "/>
   <polygon id="_487297432" class="fil1 str2" points="221.335,70.5708 224.738,70.5708 224.738,86.8026 221.335,86.8026 "/>
   <polygon id="_487297384" class="fil1 str2" points="224.692,78.6004 277.448,78.6004 277.448,81.9594 224.74,81.9594 "/>
   <polygon id="_487297336" class="fil1 str2" points="221.381,28.7927 224.74,28.7927 224.74,50.6992 221.381,50.6992 "/>
   <line id="_487297288" class="fil1 str2" x1="224.739" y1="110.514" x2="277.448" y2="110.514"/>
   <path id="_487297240" class="fil1 str2" d="M103.928 23.137l47.2153 0 0 5.49629m0 0.100598l-47.2153 0"/>
   <line id="_487297192" class="fil1 str3" x1="186.227" y1="24.2297" x2="188.004" y2="24.2297"/>
   <line id="_487297144" class="fil1 str3" x1="193.336" y1="24.2297" x2="195.112" y2="24.2297"/>
   <line id="_487297096" class="fil1 str3" x1="200.445" y1="24.2297" x2="201.869" y2="24.2297"/>
   <line id="_487297048" class="fil1 str3" x1="189.782" y1="27.7842" x2="191.558" y2="27.7842"/>
   <line id="_487297000" class="fil1 str3" x1="196.89" y1="27.7842" x2="198.667" y2="27.7842"/>
   <line id="_487296952" class="fil1 str3" x1="187.116" y1="25.1183" x2="187.116" y2="23.388"/>
   <line id="_487296904" class="fil1 str3" x1="190.67" y1="28.6728" x2="190.67" y2="26.8964"/>
   <line id="_487296856" class="fil1 str3" x1="194.225" y1="25.1183" x2="194.225" y2="23.388"/>
   <line id="_487296808" class="fil1 str3" x1="197.779" y1="28.6728" x2="197.779" y2="26.8964"/>
   <line id="_487296760" class="fil1 str3" x1="201.333" y1="25.1183" x2="201.333" y2="23.388"/>
   <polygon id="_487296712" class="fil1 str2" points="179.492,23.388 201.87,23.388 201.87,28.7927 179.492,28.7927 "/>
   <line id="_487296664" class="fil1 str3" x1="278.708" y1="76.0601" x2="280.485" y2="76.0601"/>
   <line id="_487296616" class="fil1 str3" x1="278.708" y1="83.1686" x2="280.485" y2="83.1686"/>
   <line id="_487296568" class="fil1 str3" x1="278.708" y1="90.2772" x2="280.485" y2="90.2772"/>
   <line id="_487296520" class="fil1 str3" x1="278.708" y1="97.3861" x2="280.485" y2="97.3861"/>
   <line id="_487296472" class="fil1 str3" x1="278.708" y1="104.495" x2="280.485" y2="104.495"/>
   <line id="_487296424" class="fil1 str3" x1="278.708" y1="111.604" x2="280.485" y2="111.604"/>
   <line id="_487296376" class="fil1 str3" x1="278.708" y1="118.712" x2="280.485" y2="118.712"/>
   <line id="_487296328" class="fil1 str3" x1="278.708" y1="125.821" x2="280.485" y2="125.821"/>
   <line id="_487296280" class="fil1 str3" x1="278.708" y1="132.93" x2="280.485" y2="132.93"/>
   <line id="_487296232" class="fil1 str3" x1="278.708" y1="140.039" x2="280.485" y2="140.039"/>
   <line id="_487296184" class="fil1 str3" x1="278.708" y1="147.147" x2="280.485" y2="147.147"/>
   <line id="_487296136" class="fil1 str3" x1="278.708" y1="154.256" x2="280.485" y2="154.256"/>
   <line id="_487296088" class="fil1 str3" x1="278.708" y1="161.365" x2="280.485" y2="161.365"/>
   <line id="_487296040" class="fil1 str3" x1="278.708" y1="168.474" x2="280.485" y2="168.474"/>
   <line id="_487295992" class="fil1 str3" x1="278.708" y1="175.582" x2="280.485" y2="175.582"/>
   <line id="_487295944" class="fil1 str3" x1="278.708" y1="182.691" x2="280.485" y2="182.691"/>
   <line id="_487295896" class="fil1 str3" x1="278.708" y1="189.8" x2="280.485" y2="189.8"/>
   <line id="_487295848" class="fil1 str3" x1="278.708" y1="196.909" x2="280.485" y2="196.909"/>
   <line id="_487295800" class="fil1 str3" x1="279.597" y1="197.797" x2="279.597" y2="196.02"/>
   <line id="_487295752" class="fil1 str3" x1="279.597" y1="190.688" x2="279.597" y2="188.912"/>
   <line id="_487295704" class="fil1 str3" x1="279.597" y1="183.58" x2="279.597" y2="181.803"/>
   <line id="_487295656" class="fil1 str3" x1="279.597" y1="176.471" x2="279.597" y2="174.694"/>
   <line id="_487295608" class="fil1 str3" x1="279.597" y1="169.362" x2="279.597" y2="167.585"/>
   <line id="_487295560" class="fil1 str3" x1="279.597" y1="162.253" x2="279.597" y2="160.477"/>
   <line id="_487295512" class="fil1 str3" x1="279.597" y1="155.145" x2="279.597" y2="153.368"/>
   <line id="_487295464" class="fil1 str3" x1="279.597" y1="148.036" x2="279.597" y2="146.259"/>
   <line id="_487295416" class="fil1 str3" x1="279.597" y1="140.927" x2="279.597" y2="139.151"/>
   <line id="_487295368" class="fil1 str3" x1="279.597" y1="133.818" x2="279.597" y2="132.042"/>
   <line id="_487295320" class="fil1 str3" x1="279.597" y1="126.71" x2="279.597" y2="124.933"/>
   <line id="_487295272" class="fil1 str3" x1="279.597" y1="119.601" x2="279.597" y2="117.824"/>
   <line id="_487295224" class="fil1 str3" x1="279.597" y1="112.492" x2="279.597" y2="110.716"/>
   <line id="_487295176" class="fil1 str3" x1="279.597" y1="84.0573" x2="279.597" y2="82.2809"/>
   <line id="_487295128" class="fil1 str3" x1="279.597" y1="76.9487" x2="279.597" y2="75.172"/>
   <polygon id="_487295080" class="fil2 str2" points="277.448,28.7922 283.045,28.7922 283.045,201.613 277.448,201.613 "/>
   <line id="_487295032" class="fil1 str3" x1="280.108" y1="82.0968" x2="281.885" y2="82.0968"/>
   <line id="_487294984" class="fil1 str3" x1="280.108" y1="89.2057" x2="281.885" y2="89.2057"/>
   <line id="_487294936" class="fil1 str3" x1="280.108" y1="96.3141" x2="281.885" y2="96.3141"/>
   <line id="_487294888" class="fil1 str3" x1="280.108" y1="103.423" x2="281.885" y2="103.423"/>
   <line id="_487294840" class="fil1 str3" x1="277.448" y1="106.978" x2="278.331" y2="106.978"/>
   <line id="_487294792" class="fil1 str3" x1="280.108" y1="110.532" x2="281.885" y2="110.532"/>
   <line id="_487294744" class="fil1 str3" x1="277.448" y1="114.086" x2="278.331" y2="114.086"/>
   <line id="_487294696" class="fil1 str3" x1="280.108" y1="117.641" x2="281.885" y2="117.641"/>
   <line id="_487294648" class="fil1 str3" x1="277.448" y1="121.195" x2="278.331" y2="121.195"/>
   <line id="_487294600" class="fil1 str3" x1="280.108" y1="131.858" x2="281.885" y2="131.858"/>
   <line id="_487294552" class="fil1 str3" x1="280.108" y1="138.967" x2="281.885" y2="138.967"/>
   <line id="_487294504" class="fil1 str3" x1="280.108" y1="146.076" x2="281.885" y2="146.076"/>
   <line id="_487294456" class="fil1 str3" x1="280.108" y1="153.184" x2="281.885" y2="153.184"/>
   <line id="_487294408" class="fil1 str3" x1="280.108" y1="160.293" x2="281.885" y2="160.293"/>
   <line id="_487294360" class="fil1 str3" x1="280.108" y1="167.402" x2="281.885" y2="167.402"/>
   <line id="_487294312" class="fil1 str3" x1="280.108" y1="174.511" x2="281.885" y2="174.511"/>
   <line id="_487294264" class="fil1 str3" x1="280.108" y1="181.619" x2="281.885" y2="181.619"/>
   <line id="_487294216" class="fil1 str3" x1="280.108" y1="188.728" x2="281.885" y2="188.728"/>
   <line id="_487294168" class="fil1 str3" x1="277.448" y1="192.283" x2="278.331" y2="192.283"/>
   <line id="_487294120" class="fil1 str3" x1="280.108" y1="195.837" x2="281.885" y2="195.837"/>
   <line id="_487294072" class="fil1 str3" x1="277.448" y1="199.391" x2="278.331" y2="199.391"/>
   <line id="_487294024" class="fil1 str3" x1="280.997" y1="196.725" x2="280.997" y2="194.949"/>
   <line id="_487293976" class="fil1 str3" x1="280.997" y1="189.617" x2="280.997" y2="187.84"/>
   <line id="_487293928" class="fil1 str3" x1="280.997" y1="182.508" x2="280.997" y2="180.731"/>
   <line id="_487293880" class="fil1 str3" x1="280.997" y1="175.399" x2="280.997" y2="173.622"/>
   <line id="_487293832" class="fil1 str3" x1="280.997" y1="168.29" x2="280.997" y2="166.514"/>
   <line id="_487293784" class="fil1 str3" x1="280.997" y1="161.182" x2="280.997" y2="159.405"/>
   <line id="_487293736" class="fil1 str3" x1="280.997" y1="154.073" x2="280.997" y2="152.296"/>
   <line id="_487293688" class="fil1 str3" x1="280.997" y1="146.964" x2="280.997" y2="145.187"/>
   <line id="_487293640" class="fil1 str3" x1="280.997" y1="139.855" x2="280.997" y2="138.079"/>
   <line id="_487293592" class="fil1 str3" x1="280.997" y1="132.747" x2="280.997" y2="130.97"/>
   <line id="_487293544" class="fil1 str3" x1="280.997" y1="125.638" x2="280.997" y2="123.861"/>
   <line id="_487293496" class="fil1 str3" x1="280.997" y1="118.529" x2="280.997" y2="116.752"/>
   <line id="_487293448" class="fil1 str3" x1="280.997" y1="111.42" x2="280.997" y2="109.644"/>
   <line id="_487293400" class="fil1 str3" x1="280.997" y1="104.312" x2="280.997" y2="102.535"/>
   <line id="_487293352" class="fil1 str3" x1="280.997" y1="97.2029" x2="280.997" y2="95.4264"/>
   <line id="_487293304" class="fil1 str3" x1="280.997" y1="90.0942" x2="280.997" y2="88.3178"/>
   <line id="_487293256" class="fil1 str3" x1="280.997" y1="82.9853" x2="280.997" y2="81.2089"/>
   <line id="_487293208" class="fil1 str3" x1="280.997" y1="75.8767" x2="280.997" y2="74.1004"/>
   <line id="_487293160" class="fil1 str3" x1="279.127" y1="79.8407" x2="280.903" y2="79.8407"/>
   <line id="_487293112" class="fil1 str3" x1="279.127" y1="86.9492" x2="280.903" y2="86.9492"/>
   <line id="_487293064" class="fil1 str3" x1="279.127" y1="94.0583" x2="280.903" y2="94.0583"/>
   <line id="_487293016" class="fil1 str3" x1="279.127" y1="101.167" x2="280.903" y2="101.167"/>
   <line id="_487292968" class="fil1 str3" x1="279.127" y1="108.276" x2="280.903" y2="108.276"/>
   <line id="_487292920" class="fil1 str3" x1="279.127" y1="115.384" x2="280.903" y2="115.384"/>
   <line id="_487292872" class="fil1 str3" x1="279.127" y1="122.493" x2="280.903" y2="122.493"/>
   <line id="_487292824" class="fil1 str3" x1="279.127" y1="129.602" x2="280.903" y2="129.602"/>
   <line id="_487292776" class="fil1 str3" x1="279.127" y1="136.711" x2="280.903" y2="136.711"/>
   <line id="_487292728" class="fil1 str3" x1="279.127" y1="143.819" x2="280.903" y2="143.819"/>
   <line id="_487292680" class="fil1 str3" x1="279.127" y1="150.928" x2="280.903" y2="150.928"/>
   <line id="_487292632" class="fil1 str3" x1="279.127" y1="158.037" x2="280.903" y2="158.037"/>
   <line id="_487292584" class="fil1 str3" x1="279.127" y1="165.146" x2="280.903" y2="165.146"/>
   <line id="_487292536" class="fil1 str3" x1="279.127" y1="172.254" x2="280.903" y2="172.254"/>
   <line id="_487292488" class="fil1 str3" x1="279.127" y1="179.363" x2="280.903" y2="179.363"/>
   <line id="_487292440" class="fil1 str3" x1="279.127" y1="186.472" x2="280.903" y2="186.472"/>
   <line id="_487292392" class="fil1 str3" x1="279.127" y1="193.581" x2="280.903" y2="193.581"/>
   <line id="_487292344" class="fil1 str3" x1="279.127" y1="200.689" x2="280.903" y2="200.689"/>
   <line id="_487292296" class="fil1 str3" x1="280.016" y1="201.578" x2="280.016" y2="199.801"/>
   <line id="_487292248" class="fil1 str3" x1="280.016" y1="194.469" x2="280.016" y2="192.692"/>
   <line id="_487292200" class="fil1 str3" x1="280.016" y1="187.36" x2="280.016" y2="185.583"/>
   <line id="_487292152" class="fil1 str3" x1="280.016" y1="180.251" x2="280.016" y2="178.475"/>
   <line id="_487292104" class="fil1 str3" x1="280.016" y1="173.143" x2="280.016" y2="171.366"/>
   <line id="_487292056" class="fil1 str3" x1="280.016" y1="166.034" x2="280.016" y2="164.257"/>
   <line id="_487292008" class="fil1 str3" x1="280.016" y1="158.925" x2="280.016" y2="157.149"/>
   <line id="_487291960" class="fil1 str3" x1="280.016" y1="151.816" x2="280.016" y2="150.04"/>
   <line id="_487291912" class="fil1 str3" x1="280.016" y1="144.708" x2="280.016" y2="142.931"/>
   <line id="_487291864" class="fil1 str3" x1="280.016" y1="137.599" x2="280.016" y2="135.822"/>
   <line id="_487291816" class="fil1 str3" x1="280.016" y1="130.49" x2="280.016" y2="128.714"/>
   <line id="_487291768" class="fil1 str3" x1="280.016" y1="123.382" x2="280.016" y2="121.605"/>
   <line id="_487291720" class="fil1 str3" x1="280.016" y1="116.273" x2="280.016" y2="114.497"/>
   <line id="_487291672" class="fil1 str3" x1="280.016" y1="109.164" x2="280.016" y2="107.387"/>
   <line id="_487291624" class="fil1 str3" x1="280.016" y1="102.055" x2="280.016" y2="100.279"/>
   <line id="_487291576" class="fil1 str3" x1="280.016" y1="94.9468" x2="280.016" y2="93.17"/>
   <line id="_487291528" class="fil1 str3" x1="280.016" y1="87.838" x2="280.016" y2="86.0615"/>
   <line id="_487291480" class="fil1 str3" x1="280.016" y1="80.7293" x2="280.016" y2="78.9526"/>
   <line id="_487291432" class="fil1 str3" x1="104.125" y1="26.0726" x2="105.902" y2="26.0726"/>
   <line id="_487291384" class="fil1 str3" x1="111.234" y1="26.0726" x2="113.011" y2="26.0726"/>
   <line id="_487291336" class="fil1 str3" x1="118.343" y1="26.0726" x2="120.119" y2="26.0726"/>
   <line id="_487291288" class="fil1 str3" x1="125.451" y1="26.0726" x2="127.228" y2="26.0726"/>
   <line id="_487291240" class="fil1 str3" x1="132.56" y1="26.0726" x2="134.337" y2="26.0726"/>
   <line id="_487291192" class="fil1 str3" x1="139.669" y1="26.0726" x2="141.446" y2="26.0726"/>
   <line id="_487291144" class="fil1 str3" x1="105.014" y1="26.9612" x2="105.014" y2="25.1843"/>
   <line id="_487291096" class="fil1 str3" x1="108.568" y1="23.4067" x2="108.568" y2="23.1366"/>
   <line id="_487291048" class="fil1 str3" x1="112.123" y1="26.9612" x2="112.123" y2="25.1843"/>
   <line id="_487291000" class="fil1 str3" x1="115.677" y1="23.4067" x2="115.677" y2="23.1366"/>
   <line id="_487290952" class="fil1 str3" x1="119.231" y1="26.9612" x2="119.231" y2="25.1843"/>
   <line id="_487290904" class="fil1 str3" x1="122.786" y1="23.4067" x2="122.786" y2="23.1366"/>
   <line id="_487290856" class="fil1 str3" x1="126.34" y1="26.9612" x2="126.34" y2="25.1843"/>
   <line id="_487290808" class="fil1 str3" x1="129.895" y1="23.4067" x2="129.895" y2="23.1366"/>
   <line id="_487290760" class="fil1 str3" x1="133.449" y1="26.9612" x2="133.449" y2="25.1843"/>
   <line id="_487290712" class="fil1 str3" x1="137.003" y1="23.4067" x2="137.003" y2="23.1366"/>
   <line id="_487290664" class="fil1 str3" x1="140.558" y1="26.9612" x2="140.558" y2="25.1843"/>
   <line id="_487290616" class="fil1 str3" x1="144.112" y1="23.4067" x2="144.112" y2="23.1366"/>
   <line id="_487290568" class="fil1 str3" x1="191.168" y1="26.7127" x2="192.944" y2="26.7127"/>
   <line id="_487290520" class="fil1 str3" x1="198.277" y1="26.7127" x2="200.053" y2="26.7127"/>
   <line id="_487290472" class="fil1 str3" x1="188.502" y1="24.0468" x2="188.502" y2="23.3885"/>
   <line id="_487290424" class="fil1 str3" x1="192.056" y1="27.6013" x2="192.056" y2="25.8245"/>
   <line id="_487290376" class="fil1 str3" x1="195.611" y1="24.0468" x2="195.611" y2="23.3885"/>
   <line id="_487290328" class="fil1 str3" x1="199.165" y1="27.6013" x2="199.165" y2="25.8245"/>
   <line id="_487290280" class="fil1 str3" x1="190.187" y1="24.4562" x2="191.963" y2="24.4562"/>
   <line id="_487290232" class="fil1 str3" x1="197.295" y1="24.4562" x2="199.072" y2="24.4562"/>
   <line id="_487290184" class="fil1 str3" x1="186.632" y1="28.0108" x2="188.409" y2="28.0108"/>
   <line id="_487290136" class="fil1 str3" x1="193.741" y1="28.0108" x2="195.517" y2="28.0108"/>
   <line id="_487290088" class="fil1 str3" x1="200.85" y1="28.0108" x2="201.869" y2="28.0108"/>
   <line id="_487290040" class="fil1 str3" x1="187.521" y1="28.7922" x2="187.521" y2="27.1222"/>
   <line id="_487289992" class="fil1 str3" x1="191.075" y1="25.345" x2="191.075" y2="23.5681"/>
   <line id="_487289944" class="fil1 str3" x1="194.63" y1="28.7922" x2="194.63" y2="27.1222"/>
   <line id="_487289896" class="fil1 str3" x1="198.184" y1="25.345" x2="198.184" y2="23.5681"/>
   <line id="_487289848" class="fil1 str3" x1="201.738" y1="28.7922" x2="201.738" y2="27.1222"/>
   <polygon id="_487289800" class="fil2 str2" points="87.1354,28.8109 5.97438,28.8098 5.97438,168.094 0.37576,168.028 0.378655,23.2169 87.1356,23.2307 "/>
   <line id="_487289752" class="fil1 str8" x1="96.9313" y1="210.01" x2="96.9313" y2="221.205"/>
   <line id="_487289704" class="fil1 str6" x1="85.7365" y1="168.03" x2="80.4097" y2="168.03"/>
   <line id="_487289656" class="fil1 str8" x1="80.4102" y1="168.028" x2="80.4102" y2="179.224"/>
   <line id="_487289608" class="fil1 str9" x1="255.06" y1="210.01" x2="271.851" y2="210.01"/>
   <line id="_487289560" class="fil1 str3" x1="271.851" y1="210.01" x2="271.851" y2="221.205"/>
   <line id="_487289512" class="fil1 str9" x1="271.851" y1="221.204" x2="255.06" y2="221.204"/>
   <line id="_487289464" class="fil1 str3" x1="255.06" y1="221.204" x2="255.06" y2="210.009"/>
   <line id="_487289416" class="fil1 str9" x1="166.899" y1="210.01" x2="213.08" y2="210.01"/>
   <path id="_487289368" class="fil1 str3" d="M166.899 210.01l3.34334 0m39.4924 0l3.34464 0"/>
   <line id="_487289320" class="fil1 str3" x1="213.079" y1="210.01" x2="213.079" y2="221.205"/>
   <line id="_487289272" class="fil1 str9" x1="213.079" y1="221.204" x2="166.899" y2="221.204"/>
   <path id="_487289224" class="fil1 str3" d="M213.079 221.204l-3.34334 0m-39.4924 0l-3.34464 0"/>
   <line id="_487289176" class="fil1 str3" x1="166.899" y1="221.204" x2="166.899" y2="210.009"/>
   <line id="_487289128" class="fil1 str9" x1="96.9313" y1="210.01" x2="116.523" y2="210.01"/>
   <line id="_487289080" class="fil1 str3" x1="116.523" y1="210.01" x2="116.523" y2="221.204"/>
   <line id="_487289032" class="fil1 str9" x1="116.523" y1="221.204" x2="96.9313" y2="221.204"/>
   <line id="_487288984" class="fil1 str3" x1="96.9313" y1="221.204" x2="96.9313" y2="210.01"/>
   <line id="_487288936" class="fil1 str6" x1="80.4113" y1="168.03" x2="85.7365" y2="168.03"/>
   <line id="_487288888" class="fil1 str3" x1="85.737" y1="168.03" x2="85.737" y2="179.224"/>
   <line id="_487288840" class="fil1 str3" x1="85.737" y1="179.224" x2="80.4118" y2="179.224"/>
   <line id="_487288792" class="fil1 str3" x1="80.4113" y1="179.224" x2="80.4113" y2="168.029"/>
   <line id="_487288744" class="fil1 str3" x1="38.4296" y1="168.094" x2="38.4296" y2="179.223"/>
   <line id="_487288696" class="fil1 str8" x1="271.852" y1="210.01" x2="255.06" y2="210.01"/>
   <line id="_487288648" class="fil1 str8" x1="213.078" y1="210.01" x2="166.899" y2="210.01"/>
   <line id="_487288600" class="fil1 str8" x1="116.523" y1="210.01" x2="96.9317" y2="210.01"/>
   <line id="_487288552" class="fil1 str8" x1="38.4296" y1="168.029" x2="0.601274" y2="168.029"/>
   <line id="_487288504" class="fil1 str8" x1="271.851" y1="221.204" x2="255.059" y2="221.204"/>
   <line id="_487288456" class="fil1 str8" x1="213.079" y1="221.204" x2="166.9" y2="221.204"/>
   <line id="_487288408" class="fil1 str8" x1="116.523" y1="221.204" x2="96.9313" y2="221.204"/>
   <line id="_487288360" class="fil1 str8" x1="85.737" y1="179.224" x2="80.4102" y2="179.224"/>
   <line id="_487288312" class="fil1 str8" x1="38.4296" y1="179.223" x2="0.601274" y2="179.223"/>
   <line id="_487288264" class="fil1 str8" x1="255.059" y1="210.01" x2="255.059" y2="221.205"/>
   <line id="_487288216" class="fil1 str8" x1="213.077" y1="210.01" x2="213.08" y2="221.205"/>
   <line id="_487288168" class="fil1 str8" x1="38.4296" y1="168.094" x2="38.4312" y2="179.223"/>
   <line id="_487288120" class="fil1 str8" x1="0.361864" y1="168.094" x2="0.361864" y2="179.223"/>
   <line id="_487287976" class="fil1 str8" x1="166.899" y1="210.01" x2="166.899" y2="221.205"/>
   <line id="_487288000" class="fil1 str8" x1="116.522" y1="210.01" x2="116.522" y2="221.205"/>
   <line id="_487287880" class="fil1 str8" x1="271.851" y1="210.019" x2="271.851" y2="221.204"/>
   <polygon id="_487287760" class="fil2" points="0.361864,168.028 38.3818,168.028 38.3818,179.223 0.361864,179.223 "/>
   <polygon id="_487287640" class="fil2" points="80.4126,168.028 86.5898,168.028 86.5898,179.223 80.4126,179.223 "/>
   <polygon id="_487287520" class="fil2" points="97.1895,210.004 116.522,210.004 116.522,221.2 97.1895,221.2 "/>
   <polygon id="_487287400" class="fil2" points="167.121,210.004 213.079,210.004 213.079,221.2 167.121,221.2 "/>
   <polygon id="_487287280" class="fil2" points="255.06,210.004 271.695,210.004 271.695,221.2 255.06,221.2 "/>
   <polygon id="_487287160" class="fil2" points="103.928,23.137 151.144,23.137 151.144,28.7339 103.928,28.7339 "/>
   <polygon id="_487287064" class="fil2" points="179.71,23.137 201.883,23.137 201.883,28.7339 179.71,28.7339 "/>
   <polygon id="_487287040" class="fil2" points="202.079,21.7957 283.236,21.7957 283.236,29.0923 202.079,29.0923 "/>
   <g>
    <line id="_487286944" class="fil1 str10" x1="181.945" y1="31.3424" x2="181.945" y2="38.2997"/>
    <line id="_487286848" class="fil1 str10" x1="181.945" y1="31.3424" x2="181.945" y2="38.2997"/>
    <line id="_487286752" class="fil1 str10" x1="188.136" y1="31.3424" x2="188.136" y2="38.2997"/>
    <line id="_487286656" class="fil1 str10" x1="200.775" y1="31.3424" x2="200.775" y2="38.2997"/>
    <line id="_487286560" class="fil1 str10" x1="187.084" y1="31.3424" x2="187.084" y2="38.2997"/>
    <line id="_487286464" class="fil1 str10" x1="199.722" y1="31.3424" x2="199.722" y2="38.2997"/>
    <line id="_487286368" class="fil1 str10" x1="183.101" y1="31.3445" x2="183.344" y2="38.2976"/>
    <line id="_487286272" class="fil1 str10" x1="195.739" y1="31.3445" x2="195.982" y2="38.2976"/>
    <line id="_487286176" class="fil1 str10" x1="189.292" y1="31.3445" x2="189.535" y2="38.2976"/>
    <line id="_487286080" class="fil1 str10" x1="201.93" y1="31.3445" x2="202.173" y2="38.2976"/>
    <line id="_487285984" class="fil1 str10" x1="185.06" y1="31.3509" x2="184.575" y2="38.2912"/>
    <line id="_487285888" class="fil1 str10" x1="197.699" y1="31.3509" x2="197.213" y2="38.2912"/>
    <line id="_487285792" class="fil1 str10" x1="191.252" y1="31.3509" x2="190.767" y2="38.2912"/>
    <line id="_487285696" class="fil1 str10" x1="203.89" y1="31.3509" x2="203.405" y2="38.2912"/>
    <line id="_487285600" class="fil1 str10" x1="186.305" y1="31.3509" x2="185.82" y2="38.2912"/>
    <line id="_487285504" class="fil1 str10" x1="198.943" y1="31.3509" x2="198.458" y2="38.2912"/>
    <line id="_487285408" class="fil1 str10" x1="192.497" y1="31.3509" x2="192.011" y2="38.2912"/>
    <line id="_487285192" class="fil1 str10" x1="205.135" y1="31.3509" x2="204.65" y2="38.2912"/>
    <polygon id="_487285024" class="fil1 str11" points="180.667,29.6607 206.323,29.6607 206.323,39.8773 180.667,39.8773 "/>
    <polygon id="_487285048" class="fil1 str10" points="180.667,34.3861 206.323,34.3861 206.323,35.1521 180.667,35.1521 "/>
   </g>
   <g>
    <polygon id="_487284784" class="fil1 str11" points="192.433,174.989 192.433,157.619 209.802,157.619 209.802,174.989 "/>
    <g>
     <path id="_487284640" class="fil1 str11" d="M211.711 170.067l0 -7.52707c0,-0.318441 0.260398,-0.578838 0.578838,-0.578838l7.52707 0c0.318441,0 0.578838,0.260398 0.578838,0.578838l0 7.52707c0,0.318441 -0.260398,0.578838 -0.578838,0.578838l-7.52707 0c-0.318441,0 -0.578838,-0.260398 -0.578838,-0.578838z"/>
     <polygon id="_487284664" class="fil1 str11" points="218.997,171.713 218.997,160.895 220.396,160.895 220.396,171.713 "/>
    </g>
    <g>
     <path id="_487284376" class="fil1 str11" d="M204.881 155.593l-7.52707 0c-0.318441,0 -0.578838,-0.260398 -0.578838,-0.578838l0 -7.52707c0,-0.318441 0.260398,-0.578838 0.578838,-0.578838l7.52707 0c0.318441,0 0.578838,0.260398 0.578838,0.578838l0 7.52707c0,0.318441 -0.260398,0.578838 -0.578838,0.578838z"/>
     <polygon id="_487284400" class="fil1 str11" points="206.526,148.306 195.708,148.306 195.708,146.908 206.526,146.908 "/>
    </g>
    <g>
     <path id="_487284088" class="fil1 str11" d="M204.881 176.963l-7.52707 0c-0.318441,0 -0.578838,0.260398 -0.578838,0.578838l0 7.52707c0,0.318441 0.260398,0.578838 0.578838,0.578838l7.52707 0c0.318441,0 0.578838,-0.260398 0.578838,-0.578838l0 -7.52707c0,-0.318441 -0.260398,-0.578838 -0.578838,-0.578838z"/>
     <polygon id="_487284064" class="fil1 str11" points="206.526,184.249 195.708,184.249 195.708,185.647 206.526,185.647 "/>
    </g>
   </g>
   <g>
    <path id="_487283848" class="fil1 str11" d="M105.389 117.781l-11.5229 0c-0.792483,0 -1.44051,0.648027 -1.44051,1.44037l0 18.7253c0,0.792338 0.648027,1.44037 1.44051,1.44037l11.5229 0c0.792483,0 1.44051,-0.648027 1.44051,-1.44037l0 -18.7253c0,-0.792338 -0.648027,-1.44037 -1.44051,-1.44037z"/>
    <path id="_487283728" class="fil1 str11" d="M108.22 117.781l-15.4845 0c-0.198012,0 -0.359983,-0.161971 -0.359983,-0.359983l0 -2.88102c0,-0.198012 0.161971,-0.359983 0.359983,-0.359983l15.4845 0c0.198157,0 0.359983,0.161971 0.359983,0.359983l0 2.88102c0,0.198012 -0.161826,0.359983 -0.359983,0.359983z"/>
    <path id="_487283608" class="fil1 str11" d="M108.22 164.581l-15.4845 0c-0.198012,0 -0.359983,-0.161971 -0.359983,-0.359983l0 -2.88102c0,-0.198012 0.161971,-0.359983 0.359983,-0.359983l15.4845 0c0.198157,0 0.359983,0.161971 0.359983,0.359983l0 2.88102c0,0.198012 -0.161826,0.359983 -0.359983,0.359983z"/>
    <path id="_487283464" class="fil1 str11" d="M89.1683 164.582l2.88102 0c0.198012,0 0.359983,-0.162115 0.359983,-0.360127l0 -49.9408c0,-0.198012 -0.161971,-0.360127 -0.359983,-0.360127l-2.88102 0c-0.198012,0 -0.359983,0.162115 -0.359983,0.360127l0 49.9408c0,0.198012 0.161971,0.360127 0.359983,0.360127z"/>
    <path id="_487283488" class="fil1 str11" d="M105.389 139.337l-11.5229 0c-0.792483,0 -1.44051,0.648027 -1.44051,1.44037l0 18.7253c0,0.792338 0.648027,1.44037 1.44051,1.44037l11.5229 0c0.792483,0 1.44051,-0.648027 1.44051,-1.44037l0 -18.7253c0,-0.792338 -0.648027,-1.44037 -1.44051,-1.44037z"/>
   </g>
   <g>
    <path id="_487283224" class="fil1 str11" d="M109.205 106.944l-14.5506 -5.2961c-0.186143,-0.0675963 -0.393708,0.0290939 -0.461449,0.215237l-0.985429 2.70718c-0.067741,0.186143 0.0290939,0.393708 0.215237,0.461449l14.5506 5.29596c0.186288,0.0678858 0.393708,-0.0290939 0.461449,-0.215092l0.985284 -2.70732c0.067741,-0.185998 -0.0289492,-0.393564 -0.215092,-0.461305z"/>
    <path id="_487283104" class="fil1 str11" d="M115.504 89.6377l-14.5507 -5.29596c-0.185998,-0.067741 -0.393564,0.0290939 -0.461305,0.215092l-0.985429 2.70732c-0.067741,0.185998 0.0290939,0.393564 0.215237,0.461305l14.5506 5.2961c0.186288,0.067741 0.393708,-0.0290939 0.461449,-0.215237l0.985284 -2.70718c0.067741,-0.186143 -0.0289492,-0.393708 -0.215092,-0.461449z"/>
    <path id="_487282912" class="fil1 str11" d="M97.6018 83.1217l2.70732 0.985284c0.185998,0.067741 0.313954,0.189762 0.284425,0.270964l-7.46208 20.5018c-0.0295281,0.0813471 -0.205973,0.0924925 -0.392116,0.0247515l-2.70718 -0.985429c-0.186143,-0.067741 -0.314098,-0.189617 -0.28457,-0.270964l7.46208 -20.5018c0.0296729,-0.0812024 0.205973,-0.0923478 0.392116,-0.0246068z"/>
    <path id="_487282984" class="fil1 str11" d="M106.54 105.988l-10.828 -3.94114c-0.744717,-0.270964 -1.20197,-0.909582 -1.0164,-1.41923l4.38464 -12.0468c0.185564,-0.50965 0.946203,-0.704912 1.69092,-0.433948l10.828 3.94114c0.744717,0.270964 1.20197,0.909582 1.0164,1.41938l-4.38464 12.0466c-0.185564,0.50965 -0.946203,0.704912 -1.69092,0.433948z"/>
   </g>
   <g>
    <rect id="_487282816" class="fil1 str11" x="114.973" y="124.776" width="11.5797" height="28.9492"/>
    <rect id="_487282696" class="fil1 str10" x="115.696" y="125.5" width="10.1322" height="27.5017"/>
   </g>
   <g>
    <g>
     <rect id="_487282528" class="fil1 str11" x="174.333" y="120.434" width="13.0271" height="37.6339"/>
     <rect id="_487282408" class="fil1 str10" x="175.147" y="121.375" width="11.3987" height="35.7522"/>
    </g>
    <rect id="_487282240" class="fil1 str11" x="180.186" y="127.734" width="1.44746" height="23.1593"/>
    <rect id="_487282096" class="fil1 str11" x="181.489" y="134.971" width="1.44746" height="8.68475"/>
   </g>
   <g>
    <g>
     <path id="_487281712" class="fil1 str11" d="M9.60649 105.741l8.11893 0c0.558284,0 1.01481,0.456528 1.01481,1.01467l0 16.809c0,0.558284 -0.456528,1.01481 -1.01481,1.01481l-8.11893 0c-0.558284,0 -1.01481,-0.456528 -1.01481,-1.01481l0 -16.809c0,-0.55814 0.456528,-1.01467 1.01481,-1.01467z"/>
     <path id="_487281592" class="fil1 str11" d="M9.60649 124.536l8.11893 0c0.558284,0 1.01481,0.456528 1.01481,1.01481l0 16.809c0,0.55814 -0.456528,1.01481 -1.01481,1.01481l-8.11893 0c-0.558284,0 -1.01481,-0.456673 -1.01481,-1.01481l0 -16.809c0,-0.558284 0.456528,-1.01481 1.01481,-1.01481z"/>
     <path id="_487281472" class="fil1 str11" d="M24.1656 105.74l1.60856 0c0.110586,0 0.201052,0.0904661 0.201052,0.201052l0 37.2316c0,0.110731 -0.0904661,0.201197 -0.201052,0.201197l-1.60856 0c-0.110586,0 -0.201052,-0.0904661 -0.201052,-0.201197l0 -37.2316c0,-0.110586 0.0904661,-0.201052 0.201052,-0.201052z"/>
     <path id="_487281304" class="fil1 str11" d="M6.77381 104.26l1.60856 0c0.110586,0 0.201052,0.0904661 0.201052,0.201052l0 40.1929c0,0.110731 -0.0904661,0.201197 -0.201052,0.201197l-1.60856 0c-0.110586,0 -0.201052,-0.0904661 -0.201052,-0.201197l0 -40.1929c0,-0.110586 0.0904661,-0.201052 0.201052,-0.201052z"/>
     <path id="_487281376" class="fil1 str11" d="M10.2639 105.74l47.3161 0c0.919715,0 1.67239,0.752678 1.67239,1.67268l0 34.2887c0,0.920004 -0.752678,1.67268 -1.67239,1.67268l-47.3161 0c-0.919715,0 -1.67254,-0.752678 -1.67254,-1.67268l0 -34.2887c0,-0.920004 0.752823,-1.67268 1.67254,-1.67268z"/>
    </g>
    <g>
     <rect id="_487281208" class="fil1 str11" x="6.74016" y="90.2844" width="11.5797" height="11.5797"/>
     <circle id="_487281088" class="fil1 str11" cx="12.5299" cy="96.0741" r="3.61864"/>
     <circle id="_487281016" class="fil1 str10" cx="12.5299" cy="96.0741" r="1.44746"/>
    </g>
    <g>
     <rect id="_487280848" class="fil1 str11" x="6.74016" y="147.028" width="11.5797" height="11.5797"/>
     <circle id="_487280728" class="fil1 str11" cx="12.5299" cy="152.818" r="3.61864"/>
     <circle id="_487280704" class="fil1 str10" cx="12.5299" cy="152.818" r="1.44746"/>
    </g>
   </g>
   <g>
    <polygon id="_487280488" class="fil1 str12" points="248.954,125.065 255.224,125.065 255.224,126.551 248.954,126.551 "/>
    <polygon id="_487280440" class="fil1 str12" points="266.082,119.467 254.887,119.467 254.887,113.87 266.082,113.87 "/>
    <polygon id="_487280392" class="fil1 str12" points="264.963,118.347 256.006,118.347 256.006,114.989 264.963,114.989 "/>
    <polygon id="_487280344" class="fil1 str12" points="254.887,125.065 254.887,113.869 249.29,113.869 249.29,125.065 "/>
    <polygon id="_487280296" class="fil1 str12" points="250.41,118.879 253.768,118.879 253.768,114.989 250.41,114.989 "/>
    <polygon id="_487280248" class="fil1 str12" points="250.41,120.055 250.41,123.946 253.768,123.946 253.768,120.055 "/>
    <polygon id="_487280200" class="fil1 str12" points="248.954,110.509 255.224,110.509 255.224,109.023 248.954,109.023 "/>
    <polygon id="_487280152" class="fil1 str12" points="248.954,125.065 255.224,125.065 255.224,126.551 248.954,126.551 "/>
    <polygon id="_487280104" class="fil1 str12" points="266.082,119.467 254.887,119.467 254.887,113.87 266.082,113.87 "/>
    <polygon id="_487280056" class="fil1 str12" points="264.963,118.347 256.006,118.347 256.006,114.989 264.963,114.989 "/>
    <polygon id="_487280008" class="fil1 str12" points="254.887,125.065 254.887,113.869 249.29,113.869 249.29,125.065 "/>
    <polygon id="_487279960" class="fil1 str12" points="250.41,118.879 253.768,118.879 253.768,114.989 250.41,114.989 "/>
    <polygon id="_487279888" class="fil1 str12" points="250.41,120.055 250.41,123.946 253.768,123.946 253.768,120.055 "/>
    <polygon id="_487279744" class="fil1 str12" points="248.954,110.509 255.224,110.509 255.224,109.023 248.954,109.023 "/>
    <path id="_487279864" class="fil1 str8" d="M277.277 119.48l-11.1957 0m11.1957 1.82003l-13.0135 0m0 -1.83277l0 1.83277"/>
   </g>
  </g>
 </g>
</svg>